<?xml version="1.0" standalone="no"?>
<!DOCTYPE svg PUBLIC "-//W3C//DTD SVG 1.1//EN" "http://www.w3.org/Graphics/SVG/1.1/DTD/svg11.dtd" >
<svg xmlns="http://www.w3.org/2000/svg">
<metadata>
This is a custom SVG font generated by IcoMoon.
<iconset grid="16"></iconset>
</metadata>
<defs>
<font id="Geomicons" horiz-adv-x="512" >
<font-face units-per-em="512" ascent="480" descent="-32" />
<missing-glyph horiz-adv-x="512" />
<glyph class="hidden" unicode="&#xf000;" d="M0,480L 512 -32L0 -32 z" horiz-adv-x="0" />
<glyph unicode="&#x3b;" d="M 321.542,445.134c-5.34,1.934-10.866,2.87-16.332,2.87c-13.974,0-27.582-6.112-36.882-17.272l-65.61-78.728L 177.204,352.004 
		c-26.512,0-48-21.492-48-48l0-160 c0-26.508, 21.488-48, 48-48l 25.516,0 l 65.61-78.728c 9.3-11.16, 22.91-17.272, 36.882-17.272
		c 5.468,0, 10.988,0.934, 16.332,2.87c 19.002,6.878, 31.66,24.924, 31.66,45.132L 353.204,400.002 C 353.204,420.21, 340.544,438.254, 321.542,445.134z
		 M 177.204,128.004c-8.836,0-16,7.164-16,16L 161.204,304.002 c0,8.836, 7.164,16, 16,16l 32,0 l0-192 L 177.204,128.002 z M 321.204,48.006c0-6.736-4.218-12.75-10.554-15.044
		c-1.778-0.644-3.622-0.958-5.442-0.958c-4.658,0-9.196,2.040-12.296,5.758l-67.708,81.25L 225.204,328.996 l 67.708,81.25
		c 3.102,3.72, 7.636,5.758, 12.296,5.758c 1.82,0, 3.664-0.312, 5.442-0.956c 6.336-2.294, 10.554-8.308, 10.554-15.044L 321.204,48.006 z" horiz-adv-x="513"  />
<glyph unicode="&#x36;" d="M 400.398,128.808c-4.098,0-8.192,1.562-11.314,4.688c-6.248,6.248-6.248,16.378,0,22.626
		c 18.13,18.13, 28.12,42.238, 28.12,67.88s-9.988,49.75-28.12,67.88c-6.248,6.248-6.248,16.378,0,22.626
		c 6.248,6.25, 16.376,6.25, 22.626,0.002c 24.176-24.174, 37.492-56.318, 37.492-90.51s-13.316-66.336-37.492-90.51
		C 408.588,130.372, 404.494,128.808, 400.398,128.808L 400.398,128.808z M 353.204,400.002l0-351.996 c0-20.208-12.658-38.254-31.66-45.132
		c-5.344-1.934-10.864-2.87-16.332-2.87c-13.972,0-27.582,6.114-36.882,17.272l-65.61,78.728L 177.204,96.004 c-26.512,0-48,21.492-48,48L 129.204,304.002 
		c0,26.51, 21.488,48, 48,48l 25.516,0 l 65.61,78.728c 9.3,11.16, 22.908,17.272, 36.882,17.272c 5.464,0, 10.992-0.936, 16.332-2.87
		C 340.544,438.254, 353.204,420.21, 353.204,400.002z M 209.204,128.004l0,192 l-32,0 c-8.836,0-16-7.164-16-16l0-160 c0-8.836, 7.164-16, 16-16L 209.204,128.004 z
		 M 321.204,400.002c0,6.736-4.218,12.75-10.554,15.044c-1.778,0.644-3.622,0.956-5.442,0.956c-4.66,0-9.196-2.038-12.296-5.758
		l-67.708-81.25l0-209.984 l 67.708-81.25c 3.102-3.72, 7.638-5.758, 12.296-5.758c 1.82,0, 3.664,0.312, 5.442,0.958
		c 6.336,2.294, 10.554,8.308, 10.554,15.044L 321.204,400.002 z" horiz-adv-x="513"  />
<glyph unicode="&#x31;" d="M 408.492-7.996c-4.082,0-8.164,1.568-11.278,4.708c-6.23,6.278-6.23,16.452,0,22.728
		c 54.226,54.644, 84.090,127.292, 84.090,204.564s-29.864,149.92-84.090,204.564c-6.23,6.276-6.23,16.452,0,22.728
		c 6.226,6.276, 16.328,6.278, 22.554,0c 60.254-60.714, 93.434-141.434, 93.434-227.292s-33.18-166.58-93.434-227.292
		C 416.656-6.426, 412.574-7.996, 408.492-7.996L 408.492-7.996z M 273.004,128.004c 4.042,0, 8.090,1.576, 11.172,4.726
		c 23.878,24.378, 37.028,56.794, 37.028,91.274s-13.148,66.896-37.028,91.274c-6.17,6.302-16.176,6.3-22.344,0
		c-6.172-6.302-6.172-16.518,0-22.818c 17.906-18.284, 27.77-42.594, 27.77-68.456s-9.864-50.17-27.77-68.456
		c-6.172-6.3-6.172-16.516,0-22.818C 264.914,129.58, 268.96,128.004, 273.004,128.004L 273.004,128.004z M 340.824,59.898
		c 4.082,0, 8.164,1.562, 11.278,4.688c 42.176,42.314, 65.402,98.576, 65.402,158.418s-23.226,116.104-65.402,158.418
		c-6.23,6.25-16.328,6.25-22.558,0c-6.226-6.248-6.226-16.38,0-22.63c 36.152-36.27, 56.062-84.492, 56.062-135.788
		c0-51.294-19.91-99.518-56.062-135.788c-6.226-6.25-6.226-16.382,0-22.63C 332.66,61.46, 336.742,59.898, 340.824,59.898
		L 340.824,59.898z M 193.542,445.134c-5.34,1.934-10.868,2.87-16.332,2.87c-13.974,0-27.582-6.112-36.882-17.272L 74.718,352.004L 49.204,352.004 
		c-26.512,0-48-21.492-48-48l0-160 c0-26.508, 21.488-48, 48-48l 25.516,0 l 65.61-78.728c 9.3-11.16, 22.91-17.272, 36.882-17.272
		c 5.468,0, 10.988,0.934, 16.332,2.87c 19,6.878, 31.66,24.924, 31.66,45.132L 225.204,400.002 C 225.204,420.21, 212.542,438.254, 193.542,445.134z
		 M 49.204,126.004c-8.836,0-16,8.164-16,17l0,160 c0,8.836, 7.164,15, 16,15l 32,0 l0-192 L 49.204,126.004 z M 193.204,47.006
		c0-6.736-4.218-12.75-10.554-15.044c-1.778-0.644-3.622-0.958-5.442-0.958c-4.66,0-9.196,2.040-12.296,5.758l-67.708,81.25L 97.204,327.996 
		l 67.708,81.25c 3.102,3.72, 7.636,5.758, 12.296,5.758c 1.82,0, 3.664-0.312, 5.442-0.956c 6.336-2.294, 10.554-8.308, 10.554-15.044L 193.204,47.006 z" horiz-adv-x="513"  />
<glyph unicode="&#xe07c;" d="M 257.204,287.516c 35.344,0, 64-28.652, 64-64c0-35.346-28.656-64-64-64c-35.348,0-64,28.654-64,64
		C 193.204,258.864, 221.856,287.516, 257.204,287.516 M 257.204,319.516c-52.938,0-96-43.066-96-96s 43.062-96, 96-96
		c 52.934,0, 96,43.066, 96,96S 310.138,319.516, 257.204,319.516L 257.204,319.516z M 433.204,207.516c 8.836,0, 16,7.164, 16,16s-7.164,16-16,16l-32,0 
		c-8.838,0-16-7.164-16-16s 7.162-16, 16-16L 433.204,207.516 L 433.204,207.516z M 113.204,207.516c 8.836,0, 16,7.164, 16,16s-7.164,16-16,16l-32,0 
		c-8.838,0-16-7.164-16-16s 7.162-16, 16-16L 113.204,207.516 L 113.204,207.516z M 359.024,309.34c 4.094,0, 8.192,1.562, 11.312,4.688l 22.628,22.624
		c 6.25,6.25, 6.25,16.378,0,22.628c-6.25,6.246-16.378,6.246-22.628,0l-22.624-22.628c-6.25-6.246-6.25-16.378,0-22.624
		C 350.836,310.902, 354.93,309.34, 359.024,309.34L 359.024,309.34z M 132.75,83.066c 4.094,0, 8.192,1.562, 11.314,4.688l 22.626,22.624
		c 6.25,6.25, 6.25,16.378,0,22.628c-6.25,6.246-16.378,6.246-22.626,0l-22.626-22.628c-6.25-6.246-6.25-16.378,0-22.624
		C 124.564,84.628, 128.658,83.066, 132.75,83.066L 132.75,83.066z M 257.204,351.516c 8.836,0, 16,7.164, 16,16l0,32 c0,8.836-7.164,16-16,16
		c-8.838,0-16-7.164-16-16l0-32 C 241.204,358.68, 248.366,351.516, 257.204,351.516L 257.204,351.516z M 257.204,31.516c 8.836,0, 16,7.164, 16,16l0,32 
		c0,8.836-7.164,16-16,16c-8.838,0-16-7.164-16-16l0-32 C 241.204,38.68, 248.366,31.516, 257.204,31.516L 257.204,31.516z M 155.38,309.342
		c 4.094,0, 8.192,1.562, 11.314,4.686c 6.248,6.25, 6.248,16.378,0,22.628L 144.068,359.282c-6.25,6.25-16.378,6.25-22.626,0
		c-6.248-6.246-6.248-16.378,0-22.624l 22.626-22.628C 147.192,310.904, 151.286,309.342, 155.38,309.342L 155.38,309.342z M 381.654,83.068
		c 4.094,0, 8.192,1.562, 11.312,4.686c 6.25,6.25, 6.25,16.378,0,22.628l-22.624,22.624c-6.248,6.25-16.378,6.25-22.628,0
		c-6.246-6.246-6.246-16.378,0-22.624l 22.628-22.628C 373.466,84.63, 377.56,83.068, 381.654,83.068L 381.654,83.068z" horiz-adv-x="513"  />
<glyph unicode="&#xe081;" d="M 256.214,319.516c 53.020,0, 96-42.98, 96-96s-42.98-96-96-96s-96,42.98-96,96S 203.196,319.516, 256.214,319.516 M 256.214,351.516
		c-70.582,0-128-57.42-128-128s 57.418-128, 128-128c 70.578,0, 128,57.42, 128,128S 326.792,351.516, 256.214,351.516L 256.214,351.516z
		 M 256.214,383.516c 8.836,0, 16,7.164, 16,16l0,64 c0,8.836-7.164,16-16,16c-8.838,0-16-7.164-16-16l0-64 
		C 240.214,390.68, 247.376,383.516, 256.214,383.516L 256.214,383.516z M 256.214-32.484c 8.836,0, 16,7.164, 16,16l0,64 c0,8.836-7.164,16-16,16
		c-8.838,0-16-7.164-16-16l0-64 C 240.214-25.32, 247.376-32.484, 256.214-32.484L 256.214-32.484z M 131.762,331.966
		c 4.096,0, 8.192,1.562, 11.314,4.686c 6.248,6.25, 6.248,16.378,0,22.628L 97.82,404.536c-6.246,6.246-16.376,6.246-22.624,0
		c-6.25-6.25-6.25-16.378,0-22.628l 45.254-45.254C 123.574,333.53, 127.668,331.966, 131.762,331.966L 131.762,331.966z M 425.918,37.81
		c 4.094,0, 8.192,1.562, 11.314,4.686c 6.248,6.25, 6.248,16.378,0,22.628l-45.256,45.254c-6.246,6.246-16.376,6.246-22.624,0
		c-6.25-6.25-6.25-16.378,0-22.628l 45.254-45.254C 417.73,39.374, 421.824,37.81, 425.918,37.81L 425.918,37.81z
		 M 80.214,207.516c 8.836,0, 16,7.164, 16,16s-7.164,16-16,16l-64,0 c-8.838,0-16-7.164-16-16s 7.162-16, 16-16L 80.214,207.516 L 80.214,207.516z M 496.214,207.516
		c 8.836,0, 16,7.164, 16,16s-7.164,16-16,16l-64,0 c-8.838,0-16-7.164-16-16s 7.162-16, 16-16L 496.214,207.516 L 496.214,207.516z M 86.508,37.81
		c 4.094,0, 8.188,1.562, 11.312,4.686l 45.256,45.258c 6.248,6.246, 6.248,16.378,0,22.624c-6.248,6.25-16.378,6.25-22.626,0
		l-45.258-45.254c-6.246-6.25-6.246-16.378,0-22.628C 78.316,39.374, 82.41,37.81, 86.508,37.81L 86.508,37.81z M 380.664,331.966
		c 4.094,0, 8.188,1.562, 11.312,4.686l 45.256,45.258c 6.248,6.246, 6.248,16.378,0,22.624c-6.248,6.25-16.38,6.25-22.626,0L 369.348,359.282
		c-6.246-6.25-6.246-16.378,0-22.628C 372.472,333.53, 376.568,331.966, 380.664,331.966L 380.664,331.966z"  />
<glyph unicode="&#x2a;" d="M 494.458,77.258l-127.97,127.97c 11.994,25.064, 18.714,53.134, 18.714,82.774c0,106.040-85.964,192-192,192c-106.040,0-192-85.96-192-192
		s 85.96-192, 192-192c 29.636,0, 57.708,6.722, 82.776,18.716l 127.97-127.97c 12.492-12.498, 28.876-18.746, 45.254-18.746
		s 32.758,6.248, 45.256,18.746C 519.454,11.742, 519.454,52.266, 494.458,77.258z M 33.204,288.004c0,88.224, 71.778,160, 160,160
		c 88.226,0, 160-71.776, 160-160s-71.774-160-160-160C 104.98,128.004, 33.204,199.78, 33.204,288.004z M 471.832,9.378
		c-6.25-6.25-14.438-9.374-22.628-9.374c-8.188,0-16.378,3.124-22.628,9.374l-122.122,122.124c 17.484,12.456, 32.8,27.766, 45.254,45.254
		l 122.124-122.124C 484.328,42.134, 484.328,21.874, 471.832,9.378z"  />
<glyph unicode="&#x27;" d="M 494.458,77.258l-127.97,127.97c 11.994,25.064, 18.714,53.134, 18.714,82.774c0,106.040-85.964,192-192,192c-106.040,0-192-85.96-192-192
		s 85.96-192, 192-192c 29.636,0, 57.708,6.722, 82.776,18.716l 127.97-127.97c 12.492-12.498, 28.876-18.746, 45.254-18.746
		s 32.758,6.248, 45.256,18.746C 519.454,11.742, 519.454,52.266, 494.458,77.258z M 33.204,288.004c0,88.224, 71.778,160, 160,160
		c 88.226,0, 160-71.776, 160-160s-71.774-160-160-160C 104.98,128.004, 33.204,199.78, 33.204,288.004z M 471.832,9.378
		c-6.25-6.25-14.438-9.374-22.628-9.374c-8.188,0-16.378,3.124-22.628,9.374l-122.122,122.124c 17.484,12.456, 32.8,27.766, 45.254,45.254
		l 122.124-122.124C 484.328,42.134, 484.328,21.874, 471.832,9.378z M 265.204,264.004l-144,0 c-13.254,0-24,10.746-24,24s 10.746,24, 24,24l 144,0 
		c 13.256,0, 24-10.746, 24-24S 278.458,264.004, 265.204,264.004L 265.204,264.004z" horiz-adv-x="513"  />
<glyph unicode="&#x30;" d="M 494.458,77.258l-127.97,127.97c 11.994,25.064, 18.714,53.134, 18.714,82.774c0,106.040-85.964,192-192,192c-106.040,0-192-85.96-192-192
		s 85.96-192, 192-192c 29.636,0, 57.71,6.722, 82.774,18.716l 127.972-127.97c 12.492-12.498, 28.876-18.746, 45.254-18.746
		s 32.758,6.248, 45.256,18.746C 519.454,11.742, 519.454,52.266, 494.458,77.258z M 33.204,288.004c0,88.224, 71.778,160, 160,160
		c 88.226,0, 160-71.776, 160-160s-71.774-160-160-160C 104.98,128.004, 33.204,199.78, 33.204,288.004z M 471.832,9.378
		c-6.25-6.25-14.438-9.374-22.628-9.374c-8.188,0-16.378,3.124-22.628,9.374l-122.122,122.124c 17.484,12.456, 32.8,27.766, 45.254,45.254
		l 122.124-122.124C 484.328,42.134, 484.328,21.874, 471.832,9.378z M 289.204,288.004c0-13.254-10.744-24-24-24l-48,0 l0-48 
		c0-13.254-10.744-24-24-24c-13.254,0-24,10.746-24,24l0,48 l-48,0 c-13.254,0-24,10.746-24,24s 10.746,24, 24,24l 48,0 l0,48 c0,13.254, 10.746,24, 24,24
		c 13.256,0, 24-10.746, 24-24l0-48 l 48,0 C 278.458,312.004, 289.204,301.258, 289.204,288.004z" horiz-adv-x="513"  />
<glyph unicode="&#x75;" d="M 257.204,304.002c 44.184,0, 80-35.816, 80-80s-35.816-80-80-80s-80,35.816-80,80S 213.020,304.002, 257.204,304.002 M 257.204,320.002
		c-52.934,0-96-43.066-96-96s 43.066-96, 96-96c 52.936,0, 96,43.066, 96,96S 310.138,320.002, 257.204,320.002L 257.204,320.002z M 257.204,448.002
		c 8.222,0, 16.336-0.458, 24.332-1.32l 17.024-68.106c 13.708-3.658, 26.676-9.102, 38.672-16.046l 60.214,36.128
		c 12.678-10.194, 24.218-21.734, 34.41-34.412l-36.128-60.214c 6.95-11.996, 12.39-24.964, 16.050-38.672l 68.106-17.028
		c 0.864-7.992, 1.32-16.108, 1.32-24.33s-0.458-16.336-1.32-24.33l-68.106-17.026c-3.654-13.708-9.102-26.676-16.046-38.672
		l 36.128-60.214c-10.196-12.678-21.734-24.218-34.414-34.412l-60.214,36.128c-11.996-6.948-24.964-12.39-38.672-16.048l-17.024-68.106
		c-7.996-0.864-16.11-1.32-24.332-1.32s-16.336,0.458-24.328,1.32l-17.028,68.106c-13.708,3.66-26.676,9.104-38.672,16.048
		L 116.96,49.348c-12.68,10.194-24.222,21.736-34.414,34.416l 36.128,60.214c-6.946,11.994-12.384,24.96-16.046,38.668l-68.106,17.026
		c-0.864,7.994-1.32,16.108-1.32,24.33s 0.458,16.336, 1.32,24.33l 68.106,17.026c 3.662,13.708, 9.102,26.676, 16.046,38.672L 82.546,364.244
		c 10.196,12.678, 21.738,24.22, 34.414,34.414l 60.214-36.128c 11.996,6.946, 24.964,12.388, 38.672,16.046l 17.028,68.106
		C 240.868,447.544, 248.98,448.002, 257.204,448.002 M 257.204,480.002c-9.176,0-18.516-0.506-27.766-1.506c-13.334-1.44-24.356-11.042-27.61-24.054
		l-12.726-50.916c-3.6-1.37-7.156-2.846-10.672-4.432L 133.426,426.098c-5.090,3.054-10.786,4.56-16.46,4.56
		c-7.134,0-14.234-2.382-20.054-7.062c-14.452-11.622-27.68-24.844-39.3-39.3c-8.398-10.446-9.398-25.022-2.5-36.516l 27-45.002
		c-1.586-3.516-3.062-7.074-4.43-10.672l-50.918-12.728c-13.010-3.254-22.614-14.276-24.054-27.61
		c-1-9.25-1.504-18.59-1.504-27.766s 0.504-18.516, 1.504-27.766c 1.442-13.334, 11.044-24.356, 24.054-27.61l 50.918-12.728
		c 1.368-3.596, 2.844-7.156, 4.43-10.668l-27-45.002c-6.898-11.494-5.898-26.066, 2.496-36.51
		c 11.622-14.458, 24.848-27.684, 39.304-39.308c 5.82-4.678, 12.922-7.060, 20.054-7.060c 5.676,0, 11.372,1.506, 16.46,4.56l 45,27.002
		c 3.516-1.586, 7.074-3.062, 10.672-4.432l 12.73-50.918c 3.254-13.010, 14.276-22.614, 27.61-24.052c 9.246-1, 18.59-1.506, 27.766-1.506
		s 18.518,0.506, 27.766,1.506c 13.336,1.44, 24.358,11.042, 27.61,24.054l 12.73,50.916c 3.598,1.368, 7.156,2.844, 10.672,4.43l 45.002-27
		c 5.092-3.054, 10.788-4.56, 16.458-4.56c 7.136,0, 14.236,2.382, 20.054,7.062c 14.458,11.622, 27.68,24.844, 39.3,39.298
		c 8.398,10.448, 9.398,25.022, 2.5,36.516l-27,45c 1.586,3.516, 3.062,7.074, 4.43,10.674l 50.918,12.728
		c 13.012,3.252, 22.614,14.276, 24.054,27.61c 1,9.25, 1.504,18.59, 1.504,27.766c0,9.178-0.504,18.52-1.504,27.766
		c-1.442,13.334-11.042,24.354-24.054,27.608l-50.918,12.73c-1.368,3.6-2.846,7.158-4.43,10.674l 27,45
		c 6.894,11.494, 5.898,26.068-2.5,36.514c-11.616,14.45-24.836,27.672-39.296,39.3c-5.82,4.68-12.922,7.062-20.058,7.062
		c-5.672,0-11.368-1.506-16.458-4.56l-45.006-27.002c-3.514,1.586-7.072,3.062-10.67,4.43l-12.73,50.916
		c-3.252,13.012-14.274,22.614-27.61,24.054C 275.72,479.496, 266.378,480.002, 257.204,480.002L 257.204,480.002z" horiz-adv-x="513"  />
<glyph unicode="&#x78;" d="M 402.954,293.378c 8.902,5.934, 14.25,15.926, 14.25,26.624L 417.204,388.284 c 9.566,5.532, 16,15.876, 16,27.718L 433.204,448.002 c0,17.672-14.328,32-32,32
		l-288,0 c-17.672,0-32-14.328-32-32l0-32 c0-11.844, 6.434-22.188, 16-27.718L 97.204,320.002 c0-10.7, 5.348-20.692, 14.25-26.624l 81.75-54.5l0-29.75 
		l-81.75-54.5c-8.902-5.934-14.25-15.926-14.25-26.624l0-68.282 c-9.566-5.532-16-15.876-16-27.718l0-32 c0-17.672, 14.328-32, 32-32l 288,0 
		c 17.672,0, 32,14.328, 32,32l0,32 c0,11.844-6.434,22.188-16,27.718L 417.204,128.002 c0,10.7-5.348,20.692-14.25,26.624l-81.75,54.496l0,29.754 
		L 402.954,293.378z M 113.204,448.002l 288,0 l0-32 l-16,0 l-256,0 l-16,0 L 113.204,448.002 z M 401.204,0.002l-288,0 l0,32 l 0.004,0 l 287.996,0 L 401.204,0.002 z M 353.204,48.002l-192,0 l0,32 l 96,32l 96-32
		L 353.204,48.002 z M 385.204,128.002l0-80 l-16,0 l0,32 c0,6.886-4.406,13-10.942,15.18l-96,32c-1.64,0.546-3.352,0.82-5.058,0.82
		c-1.71,0-3.418-0.274-5.062-0.82l-96-32c-6.532-2.18-10.938-8.292-10.938-15.18l0-32 l-16,0 l0,80 l 96,64l0,64 l-96,64L 129.204,400.002 l 256,0 l0-80 l-96-64l0-64.004 
		L 385.204,128.002z M 352.622,324.272c-1.918,6.934-8.226,11.73-15.418,11.73l-160,0 c-7.196,0-13.5-4.796-15.422-11.73
		c-1.918-6.93, 1.024-14.29, 7.192-17.988l 80-48c 0.070-0.044, 0.156-0.074, 0.23-0.118L 249.204,192.002 c0-4.418, 3.582-8, 8-8s 8,3.582, 8,8l0,66.164 
		c 0.070,0.042, 0.156,0.072, 0.23,0.118l 80,48C 351.602,309.984, 354.54,317.342, 352.622,324.272z M 257.204,272.002l-80,48l 160,0 L 257.204,272.002z" horiz-adv-x="513"  />
<glyph unicode="&#x45;" d="M 177.204,272.004l0-224 l-32,0 l0,224 L 177.204,272.004  M 177.204,288.004l-32,0 c-8.836,0-16-7.164-16-16l0-224 c0-8.836, 7.164-16, 16-16l 32,0 
		c 8.836,0, 16,7.164, 16,16l0,224 C 193.204,280.84, 186.040,288.004, 177.204,288.004L 177.204,288.004z M 369.204,272.004l0-224 l-32,0 l0,224 L 369.204,272.004 
		 M 369.204,288.004l-32,0 c-8.836,0-16-7.164-16-16l0-224 c0-8.836, 7.164-16, 16-16l 32,0 c 8.836,0, 16,7.164, 16,16l0,224 
		C 385.204,280.84, 378.040,288.004, 369.204,288.004L 369.204,288.004z M 273.204,272.004l0-224 l-32,0 l0,224 L 273.204,272.004  M 273.204,288.004l-32,0 
		c-8.836,0-16-7.164-16-16l0-224 c0-8.836, 7.164-16, 16-16l 32,0 c 8.836,0, 16,7.164, 16,16l0,224 C 289.204,280.84, 282.040,288.004, 273.204,288.004
		L 273.204,288.004z M 449.204,416.004l-80,0 l0,16 c0,26.466-21.534,48-48,48l-128,0 c-26.466,0-48-21.534-48-48l0-16 l-80,0 c-17.672,0-32-14.328-32-32
		l0-32 c0-17.672, 14.328-32, 32-32l0-288 c0-35.29, 28.71-64, 64-64l 256,0 c 35.29,0, 64,28.71, 64,64l0,288 c 17.672,0, 32,14.328, 32,32l0,32 
		C 481.204,401.676, 466.876,416.004, 449.204,416.004z M 177.204,432.004c0,8.822, 7.178,16, 16,16l 128,0 c 8.822,0, 16-7.178, 16-16l0-16 l-160,0 L 177.204,432.004 z
		 M 417.204,32.004c0-17.6-14.4-32-32-32l-256,0 c-17.6,0-32,14.4-32,32l0,304 l 320,0 L 417.204,32.004 z M 449.204,352.004l-384,0 l0,32 l 384,0 L 449.204,352.004 z" horiz-adv-x="513"  />
<glyph unicode="&#x3a;" d="M 481.204,480.002l-448,0 c-17.672,0-32-14.328-32-32l0-224 c0-37.376, 11.824-73.734, 35.146-108.070
		c 21.338-31.416, 51.984-60.542, 91.084-86.568c 33.872-22.544, 73.746-42.502, 118.518-59.318c 3.626-1.362, 7.44-2.042, 11.252-2.042
		s 7.624,0.68, 11.254,2.042c 44.778,16.818, 84.652,36.776, 118.52,59.32c 39.098,26.026, 69.742,55.152, 91.082,86.568
		c 23.32,34.336, 35.144,70.696, 35.144,108.070L 513.204,448.002 C 513.204,465.674, 498.876,480.002, 481.204,480.002z M 481.204,448.002l0-64 l-448,0 L 33.204,448.002 L 481.204,448.002 z M 369.244,56.002
		c-31.866-21.21-69.618-40.066-112.042-56c-42.424,15.934-80.172,34.79-112.038,56c-70.304,46.796-111.962,104.964-111.962,168L 33.202,368.002 l 448,0 l0-144 
		C 481.204,160.966, 439.544,102.798, 369.244,56.002z" horiz-adv-x="513"  />
<glyph unicode="&#x3f;" d="M 495.504,444.63c-4.526,2.26-9.422,3.374-14.296,3.374c-6.808,0-13.572-2.17-19.222-6.414
		c-22.282-16.738-48.832-25.584-76.782-25.584c-40.636,0-77.964,18.668-102.414,51.216C 276.744,475.268, 267.266,480.002, 257.204,480.002
		c-10.064,0-19.542-4.734-25.586-12.78C 207.168,434.672, 169.84,416.006, 129.206,416.006c-27.952,0-54.502,8.846-76.782,25.584
		c-5.65,4.244-12.416,6.416-19.224,6.416c-4.876,0-9.77-1.112-14.296-3.374c-10.846-5.418-17.7-16.502-17.7-28.626L 1.204,224.002 
		c0-37.376, 11.824-73.734, 35.146-108.070c 21.338-31.416, 51.984-60.542, 91.084-86.568c 33.872-22.544, 73.746-42.502, 118.52-59.318
		c 3.624-1.362, 7.438-2.042, 11.25-2.042s 7.624,0.68, 11.25,2.042c 44.782,16.818, 84.656,36.776, 118.524,59.32
		c 39.098,26.026, 69.742,55.152, 91.082,86.568c 23.32,34.336, 35.144,70.696, 35.144,108.070L 513.204,416.004 
		C 513.204,428.128, 506.35,439.212, 495.504,444.63z M 129.206,384.006c 52.342,0, 98.808,25.138, 127.998,63.996
		c 29.192-38.858, 75.658-63.996, 128-63.996c 36.022,0, 69.258,11.91, 96,31.998L 481.204,320.002 l-448,0 L 33.204,416.006 
		C 59.946,395.916, 93.184,384.006, 129.206,384.006z M 369.244,56.002c-31.866-21.21-69.618-40.066-112.042-56
		c-42.424,15.934-80.172,34.79-112.038,56c-70.304,46.796-111.962,104.964-111.962,168L 33.202,304.002 l 448,0 l0-80 
		C 481.204,160.966, 439.544,102.798, 369.244,56.002z" horiz-adv-x="513"  />
<glyph unicode="&#x79;" d="M 257.208,400.002c 8.82,0, 16-7.176, 16-16c0-8.82-7.18-16-16-16c-8.824,0-16,7.18-16,16C 241.208,392.826, 248.382,400.002, 257.208,400.002 M 257.208,416.002
		c-17.672,0-32-14.324-32-32c0-17.672, 14.328-32, 32-32c 17.668,0, 32,14.328, 32,32C 289.208,401.678, 274.876,416.002, 257.208,416.002L 257.208,416.002z
		 M 321.204,224.006l0,32.128 c 38,20.782, 64,59.546, 64,103.868c0,66.168-57.418,120-127.996,120C 186.624,480.002, 129.204,426.17, 129.204,360.002
		c0-44.32, 26-83.086, 64-103.868L 193.204,16.002 c0-12.122, 6.848-23.2, 17.692-28.622l 32-16c 4.546-2.274, 9.442-3.378, 14.3-3.378
		c 8.302,0, 16.492,3.228, 22.636,9.376l 32,32c 9.74,9.738, 12.154,24.618, 5.994,36.938l-5.688,11.376
		c 10.51,10.798, 12.072,27.496, 3.692,40.066l-17.448,26.174l 13.45,13.452c 9.74,9.738, 12.154,24.618, 5.994,36.938l-11.018,22.038
		l 5.024,5.026C 317.832,207.38, 321.204,215.52, 321.204,224.006z M 289.204,224.006l-16-16l0-15.996 l 16-32.004l-31.996-32l 32-48l-16-16
		l 16-32.004l-32.004-32l-32,16L 225.204,277.030 c-38,12.082-64,44.66-64,82.972c0,48.602, 42.982,88, 96.004,88c 53.018,0, 95.996-39.398, 95.996-88
		c0-38.312-26-70.89-64-82.972L 289.204,224.006 z" horiz-adv-x="513"  />
<glyph unicode="&#xe000;" d="M 257.208,448.002c 59.832,0, 116.082-23.298, 158.39-65.608c 42.304-42.306, 65.61-98.56, 65.61-158.392s-23.304-116.082-65.61-158.39
		C 373.29,23.302, 317.040,0.002, 257.208,0.002s-116.086,23.3-158.392,65.61C 56.504,107.92, 33.208,164.17, 33.208,224.002
		s 23.296,116.086, 65.608,158.392C 141.122,424.704, 197.376,448.002, 257.208,448.002 M 257.208,480.002c-141.386,0-256-114.614-256-256
		c0-141.382, 114.614-256, 256-256c 141.382,0, 256,114.618, 256,256C 513.208,365.388, 398.59,480.002, 257.208,480.002L 257.208,480.002z M 257.208,352.002
		c 35.344,0, 63.996-28.652, 63.996-64c0-23.684-12-44.348-32-55.414L 289.204,96.002 l-64,0 l0,136.586 c-20,11.066-32,31.73-32,55.414
		C 193.204,323.35, 221.86,352.002, 257.208,352.002 M 257.208,368.002c-44.116,0-80.004-35.886-80.004-80c0-25.238, 12-48.972, 32-63.976L 209.204,96.002 
		c0-8.836, 7.168-16, 16.004-16l 64,0 c 8.832,0, 15.996,7.164, 15.996,16l0,128.024 c 20,15.004, 32,38.738, 32,63.976
		C 337.204,332.116, 301.318,368.002, 257.208,368.002L 257.208,368.002z" horiz-adv-x="513"  />
<glyph unicode="&#x74;" d="M 385.204,247.392L 385.204,352.002 c0,70.58-57.422,128-128,128s-128-57.42-128-128l0-104.61 c-19.11-11.082-32-31.754-32-55.39l0-128 l0-64 
		c0-17.672, 14.328-32, 32-32l 256,0 c 17.672,0, 32,14.328, 32,32l0,64 l0,128 C 417.204,215.638, 404.312,236.31, 385.204,247.392z M 161.204,352.002
		c0,53.020, 42.98,96, 96,96s 96-42.98, 96-96l0-96 l-32,0 L 321.204,352.002 c0,35.348-28.654,64-64,64s-64-28.652-64-64l0-96 l-32,0 L 161.204,352.002 z M 289.204,256.002l-64,0 L 225.204,352.002 
		c0,17.644, 14.356,32, 32,32s 32-14.356, 32-32L 289.204,256.002 z M 161.204,224.002l 192,0 c 17.6,0, 32-14.398, 32-32l0-112 l-256,0 l0,112 
		C 129.204,209.604, 143.602,224.002, 161.204,224.002z M 385.204,0.002l-256,0 l0,64 l 256,0 L 385.204,0.002 z" horiz-adv-x="513"  />
<glyph unicode="&#x6f;" d="M 353.204,480.002c-70.58,0-128-57.42-128-128l0-96 l-128,0 c-35.29,0-64-28.708-64-64l0-128 l0-64 c0-17.672, 14.326-32, 32-32l 256,0 
		c 17.672,0, 32,14.328, 32,32l0,64 l0,128 c0,23.636-12.89,44.308-32,55.39L 321.204,352.002 c0,17.644, 14.356,32, 32,32s 32-14.356, 32-32l0-128 
		c0-17.672, 14.326-32, 32-32l 32,0 c 17.672,0, 32,14.328, 32,32L 481.204,352.002 C 481.204,422.582, 423.784,480.002, 353.204,480.002z M 97.204,224.002l 192,0 c 17.6,0, 32-14.398, 32-32l0-112 
		l-256,0 l0,112 C 65.204,209.604, 79.602,224.002, 97.204,224.002z M 321.204,0.002l-256,0 l0,64 l 256,0 L 321.204,0.002 z M 449.204,224.002l-32,0 l0,16 l 16,32l-16,0 L 417.204,352.002 
		c0,35.348-28.654,64-64,64s-64-28.652-64-64l0-96 l-32,0 L 257.204,352.002 c0,53.020, 42.98,96, 96,96s 96-42.98, 96-96L 449.204,224.002 z" horiz-adv-x="513"  />
<glyph unicode="&#x70;" d="M 481.204,320.002l-96,0 L 385.204,352.002 c0,35.29-28.708,64-64,64l-128,0 c-35.29,0-64-28.71-64-64l0-32 l-96,0 c-17.672,0-32-14.326-32-32l0-224 
		c0-17.674, 14.328-32, 32-32l 448,0 c 17.672,0, 32,14.326, 32,32L 513.204,288.002 C 513.204,305.676, 498.876,320.002, 481.204,320.002z M 161.204,352.002c0,17.6, 14.398,32, 32,32l 128,0 
		c 17.602,0, 32-14.4, 32-32l0-32 l-16,0 L 337.204,352.002 c0,8.836-7.164,16-16,16l-128,0 c-8.84,0-16-7.164-16-16l0-32 l-16,0 L 161.204,352.002 z M 321.204,320.002l-128,0 L 193.204,352.002 l 128,0 L 321.204,320.002 z M 481.204,288.002l0-64 
		l-144,0 l0,16 c0,8.836-7.164,16-16,16l-128,0 c-8.836,0-16-7.164-16-16l0-16 l-144,0 L 33.204,288.002 L 481.204,288.002 z M 321.204,240.002l0-48 l-128,0 l0,48 L 321.204,240.002 z M 33.204,64.002l0,144 l 144,0 l0-16 
		c0-8.836, 7.164-16, 16-16l 128,0 c 8.836,0, 16,7.164, 16,16l0,16 l 144,0 l0-144 L 33.204,64.002 z" horiz-adv-x="513"  />
<glyph unicode="&#x7a;" d="M 305.204,464.002l-100.282,0 c-5.532,9.566-15.878,16-27.718,16l-80,0 c-17.672,0-32-14.328-32-32l0-96 c0-17.672, 14.328-32, 32-32l 80,0 
		c 5.832,0, 11.292,1.572, 16,4.296l0-99.154 L 177.286,2.282c-0.638-8.86, 2.446-17.584, 8.498-24.086S 200.32-31.998, 209.204-31.998l 96,0 
		c 8.882,0, 17.364,3.692, 23.42,10.194c 6.048,6.502, 9.13,15.226, 8.498,24.086l-15.918,222.862L 321.204,350.242 l 17.324,1.732
		c 17.036-0.696, 30.676-14.772, 30.676-31.972c0-17.672, 14.328-32, 32-32l 16,0 c 17.672,0, 32,14.328, 32,32C 449.204,399.404, 384.602,464.002, 305.204,464.002z
		 M 97.204,352.002L 97.204,448.002 l 80,0 l0-96 L 97.204,352.002 z M 209.204,0.002l 14.858,208l 66.284,0 l 14.86-208L 209.204,0.002 z M 289.204,224.002l-64,0 L 225.204,340.642 l 64,6.4L 289.204,224.002 z M 401.204,320.002
		c0,35.348-28.652,64-64,64l-144-14.4L 193.204,432.002 l 112,0 c 61.856,0, 112-50.144, 112-112L 401.204,320.002 z" horiz-adv-x="513"  />
<glyph unicode="&#xe001;" d="M 257.204,64.002c 8.836,0, 16-7.164, 16-16s-7.164-16-16-16s-16,7.164-16,16S 248.368,64.002, 257.204,64.002 M 257.204,80.002
		c-17.644,0-32-14.356-32-32s 14.356-32, 32-32s 32,14.356, 32,32S 274.848,80.002, 257.204,80.002L 257.204,80.002z M 377.204,384.002
		c0,39.256-18.858,74.106-48,96l-40,0 l0-80 l-64,0 L 225.204,480.002 l-40,0 c-29.144-21.894-48-56.744-48-96c0-35.532, 15.454-67.44, 40-89.406L 177.204,48.002 
		c0-44.112, 35.886-80, 80-80c 44.112,0, 80,35.888, 80,80L 337.204,294.596 C 361.742,316.562, 377.204,348.47, 377.204,384.002z M 305.204,48.002
		c0-26.512-21.488-48-48-48s-48,21.488-48,48L 209.204,310.3 c-24.062,15.722-40,42.876-40,73.702c0,23.32, 9.132,44.532, 24,60.29L 193.204,368.002 l 128,0 
		L 321.204,444.292 c 14.864-15.758, 24-36.968, 24-60.29c0-30.822-15.942-57.976-40-73.698L 305.204,48.002 z" horiz-adv-x="513"  />
<glyph unicode="&#x6d;" d="M 193.204,287.518l 64-64l 96,32l-96-96l-64,64l-96-32L 193.204,287.518 M 193.204,303.518c-4.098,0-8.192-1.562-11.316-4.688l-96-96
		c-5.246-5.246-6.196-13.412-2.294-19.724c 2.978-4.816, 8.186-7.592, 13.612-7.592c 1.688,0, 3.39,0.27, 5.058,0.826l 86.62,28.876
		l 57.006-57.008c 3.124-3.124, 7.218-4.688, 11.316-4.688c 4.094,0, 8.188,1.562, 11.312,4.688l 96,96c 5.246,5.246, 6.2,13.412, 2.296,19.724
		c-2.976,4.816-8.184,7.588-13.614,7.59c-1.684,0-3.39-0.268-5.058-0.822l-86.618-28.876l-57.008,57.008
		C 201.39,301.956, 197.296,303.518, 193.204,303.518L 193.204,303.518z M 481.204,319.518l-32,0 l0,32 c0,35.29-28.71,64-64,64l-320,0 
		c-35.29,0-64-28.71-64-64l0-256 c0-35.29, 28.71-64, 64-64l 320,0 c 35.29,0, 64,28.71, 64,64l0,32 l 32,0 c 17.672,0, 32,14.328, 32,32l0,128 
		C 513.204,305.19, 498.876,319.518, 481.204,319.518z M 417.204,95.518c0-17.6-14.402-32-32-32l-320,0 c-17.602,0-32,14.4-32,32l0,256 
		c0,17.6, 14.398,32, 32,32l 320,0 c 17.598,0, 32-14.4, 32-32L 417.204,95.518 z M 481.204,159.518l-48,0 l0,128 l 48,0 L 481.204,159.518 z"  />
<glyph unicode="&#x72;" d="M 369.208,351.518l-288,0 c-8.836,0-16.004-7.168-16.004-16.004l0-224 c0-8.834, 7.168-15.996, 16.004-15.996l 288,0 
		c 8.836,0, 15.996,7.16, 15.996,15.996l0,224 C 385.204,344.35, 378.042,351.518, 369.208,351.518L 369.208,351.518z M 481.204,319.518l-32,0 l0,32 
		c0,35.29-28.71,64-64,64l-320,0 c-35.29,0-64-28.71-64-64l0-256 c0-35.29, 28.71-64, 64-64l 320,0 c 35.29,0, 64,28.71, 64,64l0,32 l 32,0 
		c 17.672,0, 32,14.328, 32,32l0,128 C 513.204,305.19, 498.876,319.518, 481.204,319.518z M 417.204,95.518c0-17.6-14.402-32-32-32l-320,0 
		c-17.602,0-32,14.4-32,32l0,256 c0,17.6, 14.398,32, 32,32l 320,0 c 17.598,0, 32-14.4, 32-32L 417.204,95.518 z M 481.204,159.518l-48,0 l0,128 l 48,0 L 481.204,159.518 z" horiz-adv-x="513"  />
<glyph unicode="&#x77;" d="M 321.204,111.518c0-8.836-7.164-16-16-16l-224,0 c-8.836,0-16,7.164-16,16l0,224 c0,8.836, 7.164,16, 16,16l 224,0 c 8.836,0, 16-7.164, 16-16
		L 321.204,111.518 z M 513.204,287.518l0-128 c0-17.672-14.328-32-31.996-32l-32.004,0 l0-32 c0-35.29-28.708-64-63.996-64l-320,0 
		c-35.292,0-64.004,28.71-64.004,64l0,256 c0,35.29, 28.712,64, 64.004,64l 320,0 c 35.288,0, 63.996-28.71, 63.996-64l0-32 l 32.004,0 
		C 498.876,319.518, 513.204,305.19, 513.204,287.518z M 417.204,351.518c0,17.672-14.328,32-32,32l-320,0 c-17.672,0-32-14.328-32-32l0-256 
		c0-17.672, 14.328-32, 32-32l 320,0 c 17.672,0, 32,14.328, 32,32L 417.204,351.518 z M 481.204,287.518l-48,0 l0-128 l 48,0 L 481.204,287.518 z" horiz-adv-x="513"  />
<glyph unicode="&#x7c;" d="M 257.204,111.518c0-8.836-7.164-16-16-16l-160,0 c-8.836,0-16,7.164-16,16l0,224 c0,8.836, 7.164,16, 16,16l 160,0 c 8.836,0, 16-7.164, 16-16L 257.204,111.518 z
		 M 513.204,287.518l0-128 c0-17.672-14.328-32-31.996-32l-32.004,0 l0-32 c0-35.29-28.708-64-63.996-64l-320,0 c-35.292,0-64.004,28.71-64.004,64
		l0,256 c0,35.29, 28.712,64, 64.004,64l 320,0 c 35.288,0, 63.996-28.71, 63.996-64l0-32 l 32.004,0 C 498.876,319.518, 513.204,305.19, 513.204,287.518
		z M 417.204,351.518c0,17.672-14.328,32-32,32l-320,0 c-17.672,0-32-14.328-32-32l0-256 c0-17.672, 14.328-32, 32-32l 320,0 c 17.672,0, 32,14.328, 32,32
		L 417.204,351.518 z M 481.204,287.518l-48,0 l0-128 l 48,0 L 481.204,287.518 z" horiz-adv-x="513"  />
<glyph unicode="&#xe005;" d="M 161.204,111.518c0-8.836-7.164-16-16-16l-64,0 c-8.836,0-16,7.164-16,16l0,224 c0,8.836, 7.164,16, 16,16l 64,0 c 8.836,0, 16-7.164, 16-16L 161.204,111.518 z
		 M 513.204,287.518l0-128 c0-17.672-14.328-32-31.996-32l-32.004,0 l0-32 c0-35.29-28.708-64-63.996-64L 65.204,31.518 c-35.29,0-64,28.71-64,64l0,256 
		c0,35.29, 28.71,64, 64,64l 320.004,0 c 35.288,0, 63.996-28.71, 63.996-64l0-32 l 32.004,0 C 498.876,319.518, 513.204,305.19, 513.204,287.518z
		 M 417.204,351.518c0,17.672-14.328,32-32,32l-320,0 c-17.672,0-32-14.328-32-32l0-256 c0-17.672, 14.328-32, 32-32l 320,0 c 17.672,0, 32,14.328, 32,32
		L 417.204,351.518 z M 481.204,287.518l-48,0 l0-128 l 48,0 L 481.204,287.518 z" horiz-adv-x="513"  />
<glyph unicode="&#xe00a;" d="M 481.204,319.518l-32,0 l0,32 c0,35.29-28.71,64-64,64l-320,0 c-35.292,0-64-28.71-64-64l0-256 c0-35.29, 28.708-64, 64-64l 320,0 
		c 35.29,0, 64,28.71, 64,64l0,32 l 32,0 c 17.672,0, 32,14.328, 32,32l0,128 C 513.204,305.19, 498.876,319.518, 481.204,319.518z M 417.204,95.518
		c0-17.6-14.402-32-32-32l-320,0 c-17.602,0-32,14.4-32,32l0,256 c0,17.6, 14.398,32, 32,32l 320,0 c 17.598,0, 32-14.4, 32-32L 417.204,95.518 z M 481.204,159.518
		l-48,0 l0,128 l 48,0 L 481.204,159.518 z" horiz-adv-x="513"  />
<glyph unicode="&#x34;" d="M 496.3,348.214c-4.728,2.532-9.918,3.788-15.094,3.788c-6.21,0-12.398-1.804-17.754-5.376l-78.25-52.166L 385.202,320.002 
		c0,35.29-28.71,64-64,64l-256,0 c-35.29,0-64-28.71-64-64l0-192 c0-35.29, 28.71-64, 64-64l 256,0 c 35.29,0, 64,28.71, 64,64l0,25.542 
		l 78.25-52.166c 5.356-3.57, 11.542-5.376, 17.754-5.376c 5.176,0, 10.364,1.254, 15.094,3.786c 10.406,5.57, 16.902,16.414, 16.902,28.214L 513.202,320.002 
		C 513.204,331.802, 506.708,342.646, 496.3,348.214z M 353.204,128.002c0-17.6-14.4-32-32-32l-256,0 c-17.602,0-32,14.4-32,32L 33.204,320.002 c0,17.6, 14.398,32, 32,32
		l 256,0 c 17.6,0, 32-14.4, 32-32L 353.204,128.002 z M 481.204,128.002l-96,64l0,64 l 96,64L 481.204,128.002 z" horiz-adv-x="513"  />
<glyph unicode="&#xe002;" d="M 501.886,344.418C 496.064,349.35, 488.72,352.002, 481.204,352.002c-1.75,0-3.508-0.146-5.262-0.436l-96-16
		c-9.716-1.62-17.8-7.514-22.454-15.564l-4.286,0 L 353.202,352.002 c0,17.672-14.328,32-32,32l-288,0 c-17.672,0-32-14.328-32-32l0-256 c0-17.672, 14.328-32, 32-32
		l 288,0 c 17.672,0, 32,14.328, 32,32l0,32 l 4.286,0 c 4.652-8.052, 12.736-13.946, 22.454-15.566l 96-16c 1.752-0.292, 3.512-0.434, 5.262-0.434
		c 7.518,0, 14.862,2.652, 20.684,7.584c 7.178,6.082, 11.316,15.010, 11.316,24.416L 513.204,320.002 C 513.204,329.408, 509.064,338.338, 501.886,344.418z
		 M 321.204,96.002l-288,0 L 33.204,352.002 l 288,0 L 321.204,96.002 z M 337.204,160.002L 337.204,288.002 l 32,0 l0-128 L 337.204,160.002 z M 481.204,128.002l-96,16l0,16 L 385.204,288.002 l0,16 l 96,16L 481.204,128.002 z" horiz-adv-x="513"  />
<glyph unicode="&#x61;" d="M 225.204,320.002c-70.692,0-128-57.306-128-128s 57.308-128, 128-128s 128,57.306, 128,128S 295.896,320.002, 225.204,320.002z M 225.204,80.002
		c-61.756,0-112,50.244-112,112s 50.244,112, 112,112s 112-50.244, 112-112S 286.96,80.002, 225.204,80.002z M 409.204,320.002c-22.056,0-40-17.944-40-40
		s 17.944-40, 40-40s 40,17.944, 40,40S 431.26,320.002, 409.204,320.002z M 409.204,256.002c-13.256,0-24,10.744-24,24s 10.744,24, 24,24s 24-10.744, 24-24
		S 422.46,256.002, 409.204,256.002z M 449.204,384.002L 385.26,384.002 c-0.020,0.016-0.040,0.036-0.056,0.056C 385.168,419.326, 356.472,448.002, 321.204,448.002l-128,0 
		c-35.27,0-63.968-28.68-64-63.944c-0.016-0.020-0.038-0.040-0.056-0.056L 65.204,384.002 c-35.29,0-64-28.71-64-64l0-256 
		c0-35.29, 28.71-64, 64-64l 384,0 c 35.29,0, 64,28.71, 64,64L 513.204,320.002 C 513.204,355.292, 484.494,384.002, 449.204,384.002z M 161.204,384.002c0,17.6, 14.4,32, 32,32
		l 128,0 c 17.6,0, 32-14.4, 32-32l0-16 l-192,0 L 161.204,384.002 z M 481.204,64.002c0-17.6-14.4-32-32-32l-384,0 c-17.6,0-32,14.4-32,32L 33.204,320.002 c0,17.6, 14.4,32, 32,32l 384,0 
		c 17.6,0, 32-14.4, 32-32L 481.204,64.002 z" horiz-adv-x="513"  />
<glyph unicode="&#x48;" d="M 468.472,473.548C 462.86,477.782, 456.078,480.002, 449.202,480.002c-2.94,0-5.896-0.406-8.79-1.23l-224-64
		c-13.74-3.926-23.208-16.482-23.208-30.77l0-276.132 c-17.532,12.98-40.23,20.132-64,20.132c-23.974,0-46.868-7.266-64.456-20.458
		C 44.702,92.51, 33.204,70.806, 33.204,48.002s 11.498-44.508, 31.544-59.542C 82.336-24.732, 105.228-31.998, 129.204-31.998
		s 46.866,7.266, 64.456,20.458c 20.046,15.036, 31.544,36.738, 31.544,59.542L 225.204,270.72 l 224,64l0-162.85 c-17.532,12.98-40.23,20.132-64,20.132
		c-23.974,0-46.868-7.266-64.456-20.458c-20.046-15.036-31.544-36.738-31.544-59.542s 11.498-44.508, 31.544-59.542
		c 17.588-13.192, 40.48-20.458, 64.456-20.458s 46.866,7.266, 64.456,20.458c 20.046,15.036, 31.544,36.738, 31.544,59.542L 481.204,448.002 
		C 481.204,458.044, 476.49,467.502, 468.472,473.548z M 129.204,0.002c-35.348,0-64,21.488-64,48c0,26.512, 28.652,48, 64,48
		c 35.346,0, 64-21.488, 64-48C 193.204,21.49, 164.548,0.002, 129.204,0.002z M 385.204,64.002c-35.348,0-64,21.488-64,48
		c0,26.512, 28.652,48, 64,48c 35.346,0, 64-21.488, 64-48C 449.204,85.49, 420.548,64.002, 385.204,64.002z M 449.204,368.002l-224-64L 225.204,384.002 l 224,64L 449.204,368.002 z" horiz-adv-x="513"  />
<glyph unicode="&#x43;" d="M 257.204,96.002c 70.578,0, 128,57.42, 128,128L 385.204,352.002 c0,70.58-57.422,128-128,128s-128-57.42-128-128l0-128 
		C 129.204,153.422, 186.624,96.002, 257.204,96.002z M 353.204,256.002l-192,0 L 161.204,320.002 l 192,0 L 353.204,256.002 z M 257.204,448.002c 53.020,0, 96-42.982, 96-96l0-16 l-192,0 l0,16 
		C 161.204,405.020, 204.182,448.002, 257.204,448.002z M 161.204,240.002l 192,0 l0-16 c0-53.020-42.98-96-96-96c-53.022,0-96,42.98-96,96L 161.204,240.002 z M 449.204,272.002l0-48 
		c0-100.48-77.59-183.17-176-191.328L 273.204,0.002 l 64,0 c 8.836,0, 16-7.164, 16-16s-7.164-16-16-16l-160,0 c-8.836,0-16,7.164-16,16s 7.164,16, 16,16l 64,0 l0,32.672 
		c-98.41,8.158-176,90.848-176,191.328l0,48 c0,8.836, 7.164,16, 16,16s 16-7.164, 16-16l0-48 c0-88.224, 71.776-160, 160-160s 160,71.776, 160,160l0,48 
		c0,8.836, 7.164,16, 16,16S 449.204,280.838, 449.204,272.002z" horiz-adv-x="513"  />
<glyph unicode="&#x52;" d="M 449.204,416.002l-384,0 c-35.29,0-64-28.71-64-64l0-256 c0-35.29, 28.71-64, 64-64l 384,0 c 35.29,0, 64,28.71, 64,64L 513.204,352.002 
		C 513.204,387.292, 484.494,416.002, 449.204,416.002z M 119.602,64.002l 25.602,64l 224,0 l 25.6-64L 119.602,64.002 z M 481.204,96.002c0-17.6-14.4-32-32-32l-37.168,0 
		l-27.976,69.942c-2.43,6.074-8.312,10.058-14.856,10.058l-224,0 c-6.542,0-12.426-3.984-14.856-10.058L 102.372,64.002L 65.204,64.002 
		c-17.602,0-32,14.4-32,32L 33.204,352.002 c0,17.6, 14.398,32, 32,32l 384,0 c 17.6,0, 32-14.4, 32-32L 481.204,96.002 z M 153.204,288.002c-22.090,0-40-17.91-40-40s 17.91-40, 40-40
		s 40,17.91, 40,40S 175.294,288.002, 153.204,288.002z M 153.204,224.002c-13.234,0-24,10.766-24,24s 10.766,24, 24,24s 24-10.766, 24-24S 166.438,224.002, 153.204,224.002z
		 M 361.204,288.002c-22.090,0-40-17.91-40-40s 17.91-40, 40-40s 40,17.91, 40,40S 383.294,288.002, 361.204,288.002z M 361.204,224.002
		c-13.234,0-24,10.766-24,24s 10.766,24, 24,24s 24-10.766, 24-24S 374.438,224.002, 361.204,224.002z M 361.204,320.002l-208,0 c-39.702,0-72-32.3-72-72
		c0-39.702, 32.298-72, 72-72l 208,0 c 39.7,0, 72,32.298, 72,72C 433.204,287.702, 400.904,320.002, 361.204,320.002z M 361.204,192.002l-208,0 
		c-30.926,0-56,25.074-56,56s 25.074,56, 56,56l 208,0 c 30.926,0, 56-25.074, 56-56S 392.13,192.002, 361.204,192.002z" horiz-adv-x="513"  />
<glyph unicode="&#x57;" d="M 385.204,448.002c 17.6,0, 32-14.4, 32-32l0-384 c0-17.6-14.4-32-32-32l-256,0 c-17.6,0-32,14.4-32,32L 97.204,416.002 c0,17.6, 14.4,32, 32,32L 385.204,448.002 
		 M 385.204,480.002l-256,0 c-35.29,0-64-28.71-64-64l0-384 c0-35.29, 28.71-64, 64-64l 256,0 c 35.29,0, 64,28.71, 64,64L 449.204,416.002 
		C 449.204,451.292, 420.494,480.002, 385.204,480.002L 385.204,480.002z M 257.204,288.002c 70.692,0, 128-57.308, 128-128s-57.308-128-128-128s-128,57.308-128,128
		S 186.512,288.002, 257.204,288.002 M 257.204,304.002c-79.402,0-144-64.598-144-144s 64.598-144, 144-144s 144,64.598, 144,144S 336.606,304.002, 257.204,304.002L 257.204,304.002z
		 M 337.204,400.002c 17.672,0, 32-14.326, 32-32s-14.328-32-32-32s-32,14.326-32,32S 319.532,400.002, 337.204,400.002 M 337.204,416.002
		c-26.466,0-48-21.534-48-48c0-26.468, 21.534-48, 48-48s 48,21.532, 48,48C 385.204,394.468, 363.67,416.002, 337.204,416.002L 337.204,416.002z
		 M 257.204,208.002c 26.508,0, 48-21.488, 48-48c0-26.512-21.492-48-48-48s-48,21.488-48,48C 209.204,186.514, 230.696,208.002, 257.204,208.002
		 M 257.204,224.002c-35.29,0-64-28.71-64-64s 28.71-64, 64-64s 64,28.71, 64,64S 292.494,224.002, 257.204,224.002L 257.204,224.002z" horiz-adv-x="513"  />
<glyph unicode="&#x4d;" d="M 449.204,213.174L 449.204,256.002 c0,105.868-86.13,192-192,192s-192-86.132-192-192l0-42.83 c-38-18.008-64-56.584-64-101.17
		c0-61.756, 50.242-112, 112-112c 15.536,0, 30.614,3.146, 44.814,9.354c 11.654,5.094, 19.186,16.604, 19.186,29.322l0,146.648 
		c0,12.718-7.532,24.228-19.186,29.322C 143.818,220.856, 128.74,224.002, 113.204,224.002c-5.434,0-10-0.41-16-1.164L 97.204,256.002 c0,88.224, 71.776,160, 160,160
		s 160-71.776, 160-160l0-33.164 c-6,0.752-10.566,1.164-16,1.164c-15.536,0-30.614-3.146-44.814-9.354c-11.654-5.094-19.186-16.604-19.186-29.322
		l0-146.648 c0-12.718, 7.532-24.228, 19.186-29.322c 14.202-6.208, 29.28-9.354, 44.814-9.354c 61.758,0, 112,50.244, 112,112
		C 513.204,156.59, 487.204,195.166, 449.204,213.174z M 145.204,38.678c-5.080-2.22-10.438-3.92-16-5.054l0,156.756 
		c 5.562-1.134, 10.92-2.834, 16-5.054L 145.204,38.678 z M 113.204,32.002c-44.184,0-80,35.818-80,80s 35.816,80, 80,80L 113.204,32.002 z M 369.204,185.326
		c 5.078,2.22, 10,3.918, 16,5.052l0-156.754 c-6,1.134-10.922,2.834-16,5.052L 369.204,185.326 z M 401.204,32.002L 401.204,32.002l0,160 l0,0
		c 44.184,0, 80-35.818, 80-80S 445.388,32.002, 401.204,32.002z" horiz-adv-x="513"  />
<glyph unicode="&#x2f;" d="M 449.204,384.002l-118.716,0 c-4.482,10-11.030,19.36-19.142,26.828L 366.86,466.346c 3.124,3.124, 3.124,8.188,0,11.314
		c-3.124,3.122-8.19,3.122-11.316,0l-57.122-57.124C 286.376,427.81, 272.27,432.002, 257.204,432.002c-15.070,0-29.176-4.192-41.222-11.464
		L 158.86,477.66c-3.124,3.122-8.19,3.122-11.316,0c-3.122-3.126-3.122-8.19,0-11.314l 55.516-55.516C 194.95,403.362, 188.398,394.002, 183.918,384.002
		L 65.204,384.002 c-35.29,0-64-28.708-64-64l0-288 c0-35.29, 28.71-64, 64-64l 384,0 c 35.29,0, 64,28.71, 64,64L 513.204,320.002 
		C 513.204,355.294, 484.492,384.002, 449.204,384.002z M 257.204,416.002c 23.684,0, 44.356-12, 55.422-32l-110.848,0 C 212.848,404.002, 233.516,416.002, 257.204,416.002z
		 M 481.204,32.002c0-17.672-14.328-32-32-32l-384,0 c-17.672,0-32,14.328-32,32L 33.204,320.002 c0,17.672, 14.328,32, 32,32l 384,0 c 17.672,0, 32-14.328, 32-32L 481.204,32.002 z
		 M 369.204,304.002l0-256 l-288,0 L 81.204,304.002 L 369.204,304.002  M 369.204,320.002l-288,0 c-8.836,0-16-7.164-16-16l0-256 c0-8.836, 7.164-16, 16-16l 288,0 c 8.836,0, 16,7.164, 16,16L 385.204,304.002 
		C 385.204,312.838, 378.040,320.002, 369.204,320.002L 369.204,320.002z M 433.204,304.002c 8.82,0, 16-7.178, 16-16s-7.18-16-16-16c-8.824,0-16,7.178-16,16
		S 424.378,304.002, 433.204,304.002 M 433.204,320.002c-17.672,0-32-14.328-32-32s 14.328-32, 32-32s 32,14.328, 32,32S 450.876,320.002, 433.204,320.002L 433.204,320.002z
		 M 433.204,224.002c 8.82,0, 16-7.178, 16-16s-7.18-16-16-16c-8.824,0-16,7.178-16,16S 424.378,224.002, 433.204,224.002 M 433.204,240.002c-17.672,0-32-14.328-32-32
		s 14.328-32, 32-32s 32,14.328, 32,32S 450.876,240.002, 433.204,240.002L 433.204,240.002z" horiz-adv-x="513"  />
<glyph unicode="&#x5c;" d="M 449.204,480.002l-384,0 c-35.29,0-64-28.71-64-64l0-384 c0-35.29, 28.71-64, 64-64l 384,0 c 35.29,0, 64,28.71, 64,64L 513.204,416.002 
		C 513.204,451.292, 484.494,480.002, 449.204,480.002z M 481.204,32.002c0-17.6-14.4-32-32-32l-384,0 c-17.6,0-32,14.4-32,32L 33.204,416.002 c0,17.6, 14.4,32, 32,32l 384,0 
		c 17.6,0, 32-14.4, 32-32L 481.204,32.002 z M 449.204,184.004L 449.204,400.002 c0,8.836-7.164,16-16,16l-352,0 c-8.836,0-16-7.164-16-16l0-288 c0-8.836, 7.164-16, 16-16l 352,0 
		c 8.836,0, 16,7.164, 16,16l0,71.998 C 449.204,184, 449.204,184.002, 449.204,184.004z M 433.204,400.002l0-196.686 l-58.342,58.342
		c-2.884,2.882-7.47,3.138-10.656,0.59l-74.408-59.526L 198.862,293.658c-2.968,2.968-7.728,3.138-10.896,0.388l-106.76-92.526L 81.206,400.002 
		L 433.204,400.002 z M 81.204,112.002l0,68.346 l 111.61,96.73l 90.732-90.732c 2.882-2.882, 7.47-3.136, 10.656-0.59l 74.408,59.526l 64.594-64.594L 433.204,112.002 
		L 81.204,112.002 z M 345.204,288.002c 22.056,0, 40,17.944, 40,40s-17.944,40-40,40s-40-17.944-40-40S 323.148,288.002, 345.204,288.002z M 345.204,352.002
		c 13.256,0, 24-10.744, 24-24s-10.744-24-24-24s-24,10.744-24,24S 331.948,352.002, 345.204,352.002z" horiz-adv-x="513"  />
<glyph unicode="&#x68;" d="M 439.546,374.63l-96,96c-6,6.002-14.14,9.374-22.626,9.374l-224,0 c-17.672,0-32-14.328-32-32l0-448 c0-17.672, 14.328-32, 32-32l 320,0 
		c 17.672,0, 32,14.328, 32,32l0,352 C 448.92,360.49, 445.548,368.628, 439.546,374.63z M 320.92,448.004l 96-96l-96,0 L 320.92,448.004 z M 416.92,0.004
		l-320,0 l0,448 l 208,0 l0-96 c0-8.836, 7.164-16, 16-16l 96,0 L 416.92,0.004 z" horiz-adv-x="513"  />
<glyph unicode="&#x63;" d="M 417.204,0.004c0-17.672-14.328-32-32-32l-320,0 c-17.672,0-32,14.328-32,32l0,384 c0,17.672, 14.328,32, 32,32l0-416 L 417.204,0.004 z
		 M 481.204,352.004l0-288 c0-17.672-14.328-32-32-32l-320,0 c-17.672,0-32,14.328-32,32l0,384 c0,17.672, 14.328,32, 32,32l 224,0 
		c 8.486,0, 16.626-3.372, 22.626-9.374l 96-96C 477.834,368.628, 481.204,360.49, 481.204,352.004z M 353.204,352.004l 96,0 l-96,96L 353.204,352.004 z
		 M 449.204,336.004l-96,0 c-8.836,0-16,7.164-16,16l0,96 l-208,0 l0-384 l 320,0 L 449.204,336.004 z" horiz-adv-x="513"  />
<glyph unicode="&#x59;" d="M 439.832,374.63l-96,96c-6,6.002-14.14,9.374-22.626,9.374l-224,0 c-17.672,0-32-14.328-32-32l0-448 c0-17.672, 14.328-32, 32-32l 320,0 
		c 17.672,0, 32,14.328, 32,32l0,352 C 449.204,360.49, 445.834,368.628, 439.832,374.63z M 321.204,448.004l 96-96l-96,0 L 321.204,448.004 z M 417.204,0.004
		l-320,0 l0,448 l 208,0 l0-96 c0-8.836, 7.164-16, 16-16l 96,0 L 417.204,0.004 z M 337.204,176.004c0-8.836-7.164-16-16-16l-48,0 l0-48 c0-8.836-7.164-16-16-16s-16,7.164-16,16
		l0,48 l-48,0 c-8.836,0-16,7.164-16,16s 7.164,16, 16,16l 48,0 l0,48 c0,8.836, 7.164,16, 16,16s 16-7.164, 16-16l0-48 l 48,0 
		C 330.042,192.004, 337.204,184.84, 337.204,176.004z" horiz-adv-x="513"  />
<glyph unicode="&#x5e;" d="M 439.832,374.63l-96,96c-6,6.002-14.14,9.374-22.626,9.374l-224,0 c-17.672,0-32-14.328-32-32l0-448 c0-17.672, 14.328-32, 32-32l 320,0 
		c 17.672,0, 32,14.328, 32,32l0,352 C 449.204,360.49, 445.834,368.628, 439.832,374.63z M 321.204,448.004l 96-96l-96,0 L 321.204,448.004 z M 417.204,0.004
		l-320,0 l0,448 l 208,0 l0-96 c0-8.836, 7.164-16, 16-16l 96,0 L 417.204,0.004 z M 181.892,164.69l 64-64c 6.246-6.248, 16.378-6.248, 22.626,0l 64,64
		c 6.25,6.248, 6.25,16.378,0,22.626c-6.248,6.248-16.38,6.248-22.626,0l-36.688-36.688l0,89.376 c0,8.836-7.164,16-16,16
		c-8.832,0-16-7.164-16-16l0-89.376 l-36.684,36.688c-3.124,3.124-7.22,4.688-11.318,4.688c-4.092,0-8.188-1.562-11.31-4.688
		C 175.642,181.068, 175.642,170.938, 181.892,164.69z" horiz-adv-x="513"  />
<glyph unicode="&#x54;" d="M 439.832,374.63l-96,96c-6,6.002-14.14,9.374-22.626,9.374l-224,0 c-17.672,0-32-14.328-32-32l0-448 c0-17.672, 14.328-32, 32-32l 320,0 
		c 17.672,0, 32,14.328, 32,32l0,352 C 449.204,360.49, 445.834,368.628, 439.832,374.63z M 321.204,448.004l 96-96l-96,0 L 321.204,448.004 z M 417.204,0.004
		l-320,0 l0,448 l 208,0 l0-96 c0-8.836, 7.164-16, 16-16l 96,0 L 417.204,0.004 z M 316.518,139.318c 6.25-6.248, 6.25-16.38,0-22.628
		c-3.124-3.124-7.218-4.686-11.314-4.686s-8.19,1.562-11.314,4.686l-36.686,36.688l-36.686-36.688
		c-3.124-3.124-7.218-4.686-11.314-4.686s-8.19,1.562-11.314,4.686c-6.248,6.248-6.248,16.38,0,22.628l 36.688,36.686l-36.688,36.686
		c-6.248,6.248-6.248,16.38,0,22.628c 6.248,6.25, 16.38,6.25, 22.628,0l 36.686-36.686l 36.686,36.686c 6.248,6.25, 16.38,6.25, 22.628,0
		c 6.25-6.248, 6.25-16.38,0-22.628l-36.686-36.686L 316.518,139.318z" horiz-adv-x="513"  />
<glyph unicode="&#x49;" d="M 449.204,416.004L 238.458,416.004 l-22.626,22.626c-6.002,6.002-14.14,9.374-22.626,9.374l-128,0 c-35.29,0-64-28.71-64-64l0-288 
		c0-35.29, 28.71-64, 64-64l 384,0 c 35.29,0, 64,28.71, 64,64l0,256 C 513.204,387.294, 484.494,416.004, 449.204,416.004z M 33.204,384.004
		c0,17.6, 14.4,32, 32,32l 128,0 l 32-32l 224,0 c 14.836,0, 27.36-10.246, 30.942-24L 225.204,360.004 c-2.122,0-4.156-0.844-5.656-2.344L 189.89,328.004L 33.204,328.004 
		L 33.204,384.004 z M 481.204,96.004c0-17.6-14.4-32-32-32l-384,0 c-17.6,0-32,14.4-32,32l0,216 l 160,0 c 2.122,0, 4.156,0.844, 5.656,2.344l 29.658,29.656
		l 252.686,0 L 481.204,96.004 z" horiz-adv-x="513"  />
<glyph unicode="&#x4a;" d="M 337.204,208.004c0-8.836-7.164-16-16-16l-48,0 l0-48 c0-8.836-7.164-16-16-16c-8.836,0-16,7.164-16,16l0,48 l-48,0 c-8.836,0-16,7.164-16,16
		s 7.164,16, 16,16l 48,0 l0,48 c0,8.836, 7.164,16, 16,16c 8.836,0, 16-7.164, 16-16l0-48 l 48,0 C 330.040,224.004, 337.204,216.84, 337.204,208.004z
		 M 513.204,352.004l0-256 c0-35.29-28.71-64-64-64l-384,0 c-35.29,0-64,28.71-64,64l0,288 c0,35.29, 28.71,64, 64,64l 128,0 
		c 8.486,0, 16.624-3.372, 22.626-9.374l 22.626-22.626l 210.746,0 C 484.494,416.004, 513.204,387.294, 513.204,352.004z M 33.204,328.004l 156.686,0 
		l 29.658,29.656c 1.5,1.5, 3.536,2.344, 5.656,2.344l 254.942,0 c-3.582,13.754-16.106,24-30.942,24l-224,0 l-32,32l-128,0 c-17.6,0-32-14.4-32-32
		L 33.204,328.004 z M 481.204,344.004L 228.518,344.004 L 198.86,314.348c-1.5-1.5-3.536-2.344-5.656-2.344l-160,0 l0-216 c0-17.6, 14.4-32, 32-32l 384,0 
		c 17.6,0, 32,14.4, 32,32L 481.204,344.004 z" horiz-adv-x="513"  />
<glyph unicode="&#xe00c;" d="M 337.204,256.002l0-64 l-160,0 l0,64 L 337.204,256.002  M 337.204,272.002l-160,0 c-8.836,0-16-7.162-16-15.998L 161.204,192.002 c0-8.836, 7.164-16, 16-16l 160,0 
		c 8.836,0, 16,7.164, 16,16l0,64.002 C 353.204,264.84, 346.040,272.002, 337.204,272.002L 337.204,272.002z M 481.204,448.002l-448,0 c-17.672,0-32-14.326-32-32l0-64 
		c0-17.674, 14.328-32, 32-32l0-288 c0-17.674, 14.328-32, 32-32l 384,0 c 17.672,0, 32,14.326, 32,32L 481.204,320.002 c 17.672,0, 32,14.326, 32,32L 513.204,416.002 
		C 513.204,433.676, 498.876,448.002, 481.204,448.002z M 449.204,32.002l-384,0 L 65.204,320.002 l 384,0 L 449.204,32.002 z M 481.204,352.002l-448,0 L 33.204,416.002 l 448,0 L 481.204,352.002 z" horiz-adv-x="513"  />
<glyph unicode="&#xe011;" d="M 385.204,448.002c 17.6,0, 32-14.4, 32-32l0-384 c0-17.6-14.4-32-32-32l-256,0 c-17.602,0-32,14.4-32,32L 97.204,416.002 c0,17.6, 14.398,32, 32,32L 385.204,448.002 
		 M 385.204,480.002l-256,0 c-35.29,0-64-28.71-64-64l0-384 c0-35.29, 28.71-64, 64-64l 256,0 c 35.29,0, 64,28.71, 64,64L 449.204,416.002 
		C 449.204,451.292, 420.492,480.002, 385.204,480.002L 385.204,480.002z M 369.204,400.002l0-144 l-224,0 L 145.204,400.002 L 369.204,400.002  M 369.204,416.002l-224,0 c-8.836,0-16-7.164-16-16l0-144 
		c0-8.836, 7.164-16, 16-16l 224,0 c 8.836,0, 16,7.164, 16,16L 385.204,400.002 C 385.204,408.838, 378.040,416.002, 369.204,416.002L 369.204,416.002z M 289.204,368.002l0-32 l-64,0 L 225.204,368.002 L 289.204,368.002 
		 M 289.204,384.002l-64,0 c-8.836,0-16-7.164-16-16l0-32 c0-8.836, 7.164-16, 16-16l 64,0 c 8.836,0, 16,7.164, 16,16L 305.204,368.002 C 305.204,376.838, 298.040,384.002, 289.204,384.002
		L 289.204,384.002z M 289.204,160.002l0-32 l-64,0 l0,32 L 289.204,160.002  M 289.204,176.002l-64,0 c-8.836,0-16-7.164-16-16l0-32 c0-8.836, 7.164-16, 16-16l 64,0 
		c 8.836,0, 16,7.164, 16,16l0,32 C 305.204,168.838, 298.040,176.002, 289.204,176.002L 289.204,176.002z M 369.204,192.002l0-144 l-224,0 l0,144 L 369.204,192.002  M 369.204,208.002
		l-224,0 c-8.836,0-16-7.164-16-16l0-144 c0-8.836, 7.164-16, 16-16l 224,0 c 8.836,0, 16,7.164, 16,16l0,144 C 385.204,200.838, 378.040,208.002, 369.204,208.002
		L 369.204,208.002z" horiz-adv-x="513"  />
<glyph unicode="&#xe083;" d="M 478.8,352l-96,0 l0,32 c0,35.292-28.71,64-64,64l-128,0 c-35.29,0-64-28.708-64-64l0-32 l-96,0 c-17.672,0-32-14.328-32-32l0-288 
		c0-17.672, 14.328-32, 32-32l 448,0 c 17.672,0, 32,14.328, 32,32l0,288 C 510.8,337.672, 496.474,352, 478.8,352z M 158.8,384
		c0,17.6, 14.4,32, 32,32l 128,0 c 17.6,0, 32-14.4, 32-32l0-32 l-16,0 l0,32 c0,8.836-7.164,16-16,16l-128,0 c-8.836,0-16-7.164-16-16l0-32 l-16,0 L 158.8,384 z M 318.8,384
		l0-32 l-128,0 l0,32 L 318.8,384 z M 398.8,320l0-288 l-288,0 l0,288 L 398.8,320 z M 30.8,320l 64,0 l0-288 l-64,0 L 30.8,320 z M 478.8,32l-64,0 l0,288 l 64,0 L 478.8,32 z" horiz-adv-x="511"  />
<glyph unicode="&#x46;" d="M 385.204-31.996l-320,0 c-35.29,0-64,28.71-64,64l0,320 c0,35.29, 28.71,64, 64,64l 160,0 c 8.836,0, 16-7.164, 16-16
		c0-8.836-7.164-16-16-16l-160,0 c-17.644,0-32-14.356-32-32l0-320 c0-17.644, 14.356-32, 32-32l 320,0 c 17.644,0, 32,14.356, 32,32l0,160 c0,8.836, 7.164,16, 16,16
		s 16-7.164, 16-16l0-160 C 449.204-3.286, 420.492-31.996, 385.204-31.996L 385.204-31.996z M 503.83,377.372L 257.548,131.090
		l-124.342-31.086l 31.084,124.348L 410.572,470.63c 6.246,6.248, 14.436,9.374, 22.626,9.374c 8.19,0, 16.38-3.124, 22.626-9.374l 48.004-48.004
		C 516.328,410.13, 516.328,389.868, 503.83,377.372z M 241.19,159.986l 8,8.002l-48.002,48l-8-8l-16.002-64.004L 241.19,159.986z
		 M 393.198,311.996l-48.004,48.002l-128.004-128.006l 48-48.002L 393.198,311.996z M 433.2,351.998l-48.002,48.002l-24.002-24l 48.002-48.002
		L 433.2,351.998z M 481.204,400l-48.004,48l-25.374-25.374l 48-48.002L 481.204,400z" horiz-adv-x="513"  />
<glyph unicode="&#x73;" d="M 449.204,448.002c 17.598,0, 32-14.4, 32-32l0-384 c0-17.6-14.402-32-32-32l-384,0 c-17.602,0-32,14.4-32,32L 33.204,416.002 c0,17.6, 14.398,32, 32,32L 449.204,448.002 
		 M 449.204,480.002l-384,0 c-35.292,0-64-28.71-64-64l0-384 c0-35.29, 28.708-64, 64-64l 384,0 c 35.29,0, 64,28.71, 64,64L 513.204,416.002 
		C 513.204,451.292, 484.492,480.002, 449.204,480.002L 449.204,480.002z M 81.204,288.002c 4.094,0, 8.188,1.562, 11.308,4.686l 48,48
		c 6.254,6.25, 6.254,16.378,0,22.628l-48,48.002c-6.246,6.246-16.376,6.246-22.622,0c-6.25-6.25-6.25-16.378,0-22.63L 106.574,352.002
		L 69.89,315.318c-6.25-6.25-6.25-16.378,0-22.628C 73.012,289.566, 77.106,288.002, 81.204,288.002L 81.204,288.002z M 257.204,288.002c 8.836,0, 16,7.164, 16,16
		s-7.164,16-16,16l-80,0 c-8.836,0-16-7.164-16-16s 7.164-16, 16-16L 257.204,288.002 L 257.204,288.002z" horiz-adv-x="513"  />
<glyph unicode="&#x6b;" d="M 209.204,368.002c 17.644,0, 32,14.354, 32,32c0,17.644-14.356,32-32,32s-32-14.356-32-32C 177.204,382.356, 191.558,368.002, 209.204,368.002z
		 M 209.204,416.002c 8.838,0, 16-7.164, 16-16c0-8.836-7.162-16-16-16c-8.836,0-16,7.164-16,16C 193.204,408.838, 200.368,416.002, 209.204,416.002z M 401.204,432.002
		c-17.644,0-32-14.356-32-32c0-17.646, 14.356-32, 32-32s 32,14.354, 32,32C 433.204,417.646, 418.848,432.002, 401.204,432.002z M 401.204,384.002
		c-8.836,0-16,7.164-16,16c0,8.836, 7.164,16, 16,16c 8.838,0, 16-7.164, 16-16C 417.204,391.166, 410.042,384.002, 401.204,384.002z M 305.204,368.002
		c 17.644,0, 32,14.354, 32,32c0,17.644-14.356,32-32,32s-32-14.356-32-32C 273.204,382.356, 287.558,368.002, 305.204,368.002z M 305.204,416.002
		c 8.838,0, 16-7.164, 16-16c0-8.836-7.162-16-16-16c-8.836,0-16,7.164-16,16C 289.204,408.838, 296.368,416.002, 305.204,416.002z M 449.204,480.002l-384,0 
		c-35.29,0-64-28.71-64-64l0-384 c0-35.29, 28.71-64, 64-64l 384,0 c 35.292,0, 64,28.71, 64,64L 513.204,416.002 C 513.204,451.292, 484.494,480.002, 449.204,480.002z
		 M 481.204,32.002c0-17.6-14.4-32-32-32l-384,0 c-17.6,0-32,14.4-32,32L 33.204,416.002 c0,17.6, 14.4,32, 32,32l 384,0 c 17.6,0, 32-14.4, 32-32L 481.204,32.002 z M 113.204,368.002
		c 17.644,0, 32,14.354, 32,32c0,17.644-14.356,32-32,32s-32-14.356-32-32C 81.204,382.356, 95.558,368.002, 113.204,368.002z M 113.204,416.002
		c 8.838,0, 16-7.164, 16-16c0-8.836-7.162-16-16-16c-8.836,0-16,7.164-16,16C 97.204,408.838, 104.368,416.002, 113.204,416.002z M 417.212,264.002
		c0-4.418-3.582-8-8-8c-0.002,0-0.002,0-0.004,0L 105.198,256.002 c-0.002,0-0.002,0-0.004,0c-4.418,0-8,3.582-8,8c0,4.418, 3.582,8, 8,8l0,0
		l 304.020,0 l0,0C 413.63,272.002, 417.212,268.42, 417.212,264.002z M 417.212,200.002c0-4.418-3.582-8-8-8L 105.194,192.002 c-4.418,0-8,3.582-8,8s 3.582,8, 8,8
		l 304.020,0 C 413.63,208.002, 417.212,204.42, 417.212,200.002z M 417.212,136.002c0-4.418-3.582-8-8-8l0,0L 105.194,128.002 l0,0c-4.418,0-8,3.582-8,8
		c0,4.418, 3.582,8, 8,8c 0.002,0, 0.002,0, 0.004,0l 304.010,0 c 0.002,0, 0.002,0, 0.004,0C 413.63,144.002, 417.212,140.42, 417.212,136.002z
		 M 417.212,72.002c0-4.418-3.582-8-8-8l0,0 L 105.194,64.002 l0,0 c-4.418,0-8,3.582-8,8c0,4.418, 3.582,8, 8,8c 0.004,0, 0.006,0, 0.010,0l 304,0 
		c 0.004,0, 0.006,0, 0.010,0C 413.63,80.002, 417.212,76.42, 417.212,72.002z" horiz-adv-x="513"  />
<glyph unicode="&#xe02a;" d="M 497.204,304.002c 8.836,0, 16,7.164, 16,16L 513.204,416.002 c0,8.836-7.164,16-16,16l-34.026,0 c-7.124,27.572-32.208,48-61.974,48l-304,0 
		c-35.29,0-64-28.71-64-64l0-32 l-16,0 c-8.836,0-16-7.164-16-16s 7.164-16, 16-16l 16,0 l0-64 l-16,0 c-8.836,0-16-7.164-16-16s 7.164-16, 16-16l 16,0 l0-64 l-16,0 
		c-8.836,0-16-7.164-16-16s 7.164-16, 16-16l 16,0 l0-64 l-16,0 c-8.836,0-16-7.164-16-16s 7.164-16, 16-16l 16,0 l0-32 c0-35.29, 28.71-64, 64-64l 304,0 
		c 29.766,0, 54.852,20.428, 61.974,48l 34.026,0 c 8.836,0, 16,7.164, 16,16l0,96 c0,8.836-7.164,16-16,16l-32,0 l0,16 l 32,0 c 8.836,0, 16,7.164, 16,16l0,96 
		c0,8.836-7.164,16-16,16l-32,0 l0,16 L 497.204,304.002 z M 433.204,32.002c0-17.6-14.4-32-32-32l-304,0 c-17.6,0-32,14.4-32,32l0,32 l 16,0 c 8.836,0, 16,7.164, 16,16
		s-7.164,16-16,16l-16,0 l0,64 l 16,0 c 8.836,0, 16,7.164, 16,16s-7.164,16-16,16l-16,0 l0,64 l 16,0 c 8.836,0, 16,7.164, 16,16s-7.164,16-16,16l-16,0 L 65.204,352.002 l 16,0 c 8.836,0, 16,7.164, 16,16
		s-7.164,16-16,16l-16,0 L 65.204,416.002 c0,17.6, 14.4,32, 32,32l 304,0 c 17.6,0, 32-14.4, 32-32L 433.204,32.002 z M 497.204,416.002l0-96 l-32,0 L 465.204,416.002 L 497.204,416.002 z M 497.204,128.002l0-96 l-32,0 l0,96 
		L 497.204,128.002 z M 497.204,272.002l0-96 l-32,0 l0,96 L 497.204,272.002 z" horiz-adv-x="513"  />
<glyph unicode="&#xe02f;" d="M 417.204,480.002l-288,0 c-35.29,0-64-28.71-64-64l0-32 l-16,0 c-8.836,0-16-7.164-16-16s 7.164-16, 16-16l 16,0 l0-64 l-16,0 c-8.836,0-16-7.164-16-16
		s 7.164-16, 16-16l 16,0 l0-64 l-16,0 c-8.836,0-16-7.164-16-16s 7.164-16, 16-16l 16,0 l0-64 l-16,0 c-8.836,0-16-7.164-16-16s 7.164-16, 16-16l 16,0 l0-32 c0-35.29, 28.71-64, 64-64
		l 288,0 c 35.29,0, 64,28.71, 64,64L 481.204,416.002 C 481.204,451.292, 452.494,480.002, 417.204,480.002z M 449.204,32.002c0-17.6-14.4-32-32-32l-288,0 c-17.6,0-32,14.4-32,32
		l0,32 l 16,0 c 8.836,0, 16,7.164, 16,16s-7.164,16-16,16l-16,0 l0,64 l 16,0 c 8.836,0, 16,7.164, 16,16s-7.164,16-16,16l-16,0 l0,64 l 16,0 c 8.836,0, 16,7.164, 16,16s-7.164,16-16,16l-16,0 
		L 97.204,352.002 l 16,0 c 8.836,0, 16,7.164, 16,16s-7.164,16-16,16l-16,0 L 97.204,416.002 c0,17.6, 14.4,32, 32,32l 288,0 c 17.6,0, 32-14.4, 32-32L 449.204,32.002 z M 281.204,344.002
		c 22.092,0, 40-17.908, 40-40l0-32 c0-13.086-32-56-32-56c 42.602-2.332, 79.914-23.93, 104-55.988L 393.204,144.002 l-224,0 l0,16.014 
		c 24.086,32.056, 61.396,53.654, 104,55.986c0,0-32,42.914-32,56L 241.204,304.002 C 241.204,326.094, 259.112,344.002, 281.204,344.002 M 281.204,360.002
		c-30.88,0-56-25.122-56-56l0-32 c0-6.38, 2.206-16.312, 18.566-41.598c 0.508-0.786, 1.014-1.562, 1.518-2.328
		c-35.114-8.302-66.582-28.778-88.876-58.45c-2.082-2.772-3.208-6.144-3.208-9.612L 153.204,144.002 c0-8.836, 7.164-16, 16-16l 224,0 
		c 8.836,0, 16,7.164, 16,16l0,16.012 c0,3.466-1.126,6.84-3.208,9.61c-22.294,29.676-53.764,50.15-88.876,58.454
		c 0.504,0.766, 1.010,1.542, 1.518,2.328c 16.36,25.286, 18.566,35.216, 18.566,41.598L 337.204,304.002 C 337.204,334.88, 312.084,360.002, 281.204,360.002L 281.204,360.002z
		" horiz-adv-x="513"  />
<glyph unicode="&#xe039;" d="M 439.506,320.002l-176,0 c-4.418,0-8,3.582-8,8s 3.582,8, 8,8l 176,0 c 4.42,0, 8-3.582, 8-8S 443.926,320.002, 439.506,320.002L 439.506,320.002z M 439.506,272.002
		c 4.42,0, 8,3.582, 8,8s-3.58,8-8,8l-176,0 c-4.418,0-8-3.582-8-8s 3.582-8, 8-8L 439.506,272.002 L 439.506,272.002z M 223.506,336.002l0-128 c0-8.836-7.162-16-16-16
		l-128,0 c-8.838,0-16,7.164-16,16L 63.506,336.002 c0,8.836, 7.162,16, 16,16l 128,0 C 216.344,352.002, 223.506,344.838, 223.506,336.002z M 207.506,336.002l-128,0 l0-128 l 16,0 
		c0,18.088, 10.010,33.832, 24.79,42.016c-5.434,5.734-8.79,13.46-8.79,21.984c0,17.672, 14.328,32, 32,32c 17.674,0, 32-14.328, 32-32
		c0-8.524-3.356-16.25-8.79-21.984c 14.78-8.184, 24.79-23.928, 24.79-42.016l 16,0 L 207.506,336.002 z M 511.506,384.002l0-320 c0-17.672-14.326-32-32-32l-448,0 
		c-17.674,0-32,14.328-32,32L-0.494,384.002 c0,17.672, 14.326,32, 32,32l 448,0 C 497.18,416.002, 511.506,401.674, 511.506,384.002z M 479.506,384.002l-448,0 l0-320 l 104,0 l0,16 
		c0,0.352, 0.060,0.688, 0.104,1.028c-13.832,3.53-24.104,16.058-24.104,30.972c0,17.644, 14.356,32, 32,32s 32-14.356, 32-32
		c0-14.914-10.272-27.444-24.104-30.972c 0.042-0.34, 0.104-0.676, 0.104-1.028l0-16 l 208,0 l0,16 c0,0.352, 0.060,0.688, 0.104,1.028
		c-13.832,3.53-24.104,16.058-24.104,30.972c0,17.644, 14.356,32, 32,32s 32-14.356, 32-32c0-14.914-10.272-27.444-24.104-30.972
		c 0.042-0.34, 0.104-0.676, 0.104-1.028l0-16 l 104,0 L 479.506,384.002 z M 383.506,112.002c0,8.822-7.178,16-16,16s-16-7.178-16-16s 7.178-16, 16-16
		S 383.506,103.18, 383.506,112.002z M 159.506,112.002c0,8.822-7.178,16-16,16s-16-7.178-16-16s 7.178-16, 16-16S 159.506,103.18, 159.506,112.002z M 439.506,224.002
		c 4.42,0, 8,3.582, 8,8s-3.58,8-8,8l-176,0 c-4.418,0-8-3.582-8-8s 3.582-8, 8-8L 439.506,224.002 L 439.506,224.002z"  />
<glyph unicode="&#xe020;" d="M 385.204,384.002l 96-160l0-160 l-448,0 l0,160 l 96,160L 385.204,384.002  M 385.204,416.002l-256,0 c-11.24,0-21.656-5.898-27.44-15.536l-96-160
		c-2.984-4.974-4.56-10.664-4.56-16.464l0-160 c0-17.672, 14.328-32, 32-32l 448,0 c 17.672,0, 32,14.328, 32,32l0,160 c0,5.8-1.576,11.49-4.562,16.464
		l-96,160C 406.86,410.104, 396.442,416.002, 385.204,416.002L 385.204,416.002z M 353.204,336.002l 64-112l-80,0 l0-48 l-160,0 l0,48 l-80,0 l 64,112L 353.204,336.002  M 353.204,352.002l-192,0 
		c-5.742,0-11.042-3.076-13.89-8.062l-64-112c-2.832-4.952-2.81-11.036, 0.050-15.968c 2.864-4.934, 8.136-7.968, 13.84-7.968l 64,0 l0-32 
		c0-8.836, 7.164-16, 16-16l 160,0 c 8.836,0, 16,7.164, 16,16l0,32 l 64,0 c 5.704,0, 10.976,3.036, 13.838,7.968s 2.884,11.018, 0.052,15.968l-64,112
		C 364.248,348.926, 358.946,352.002, 353.204,352.002L 353.204,352.002z" horiz-adv-x="513"  />
<glyph unicode="&#xe01b;" d="M 367.094,343.94l 64-112c 2.832-4.952, 2.808-11.036-0.052-15.968S 422.908,208.002, 417.204,208.002l-64,0 l0-32 c0-8.836-7.164-16-16-16l-160,0 
		c-8.836,0-16,7.164-16,16l0,32 l-64,0 c-5.704,0-10.976,3.036-13.84,7.968c-2.862,4.934-2.882,11.018-0.050,15.968l 64,112
		C 150.162,348.926, 155.462,352.002, 161.204,352.002l 48,0 l0-16 l-48,0 l-64-112l 80,0 l0-48 l 160,0 l0,48 l 80,0 l-64,112l-48,0 l0,16 l 48,0 C 358.946,352.002, 364.248,348.926, 367.094,343.94z
		 M 513.204,224.002l0-160 c0-17.672-14.328-32-32-32l-448,0 c-17.672,0-32,14.328-32,32l0,160 c0,5.8, 1.576,11.49, 4.56,16.464l 96,160
		c 5.784,9.636, 16.2,15.536, 27.44,15.536l 256,0 c 11.238,0, 21.656-5.898, 27.438-15.536l 96-160C 511.628,235.492, 513.204,229.802, 513.204,224.002z
		 M 481.204,224.002l-96,160l-256,0 l-96-160l0-160 l 448,0 L 481.204,224.002 z M 181.89,299.314C 185.012,302.44, 189.108,304.002, 193.2,304.002c 4.098,0, 8.194-1.562, 11.318-4.688
		l 36.686-36.688L 241.204,352.002 c0,8.836, 7.168,16, 16,16c 8.836,0, 16-7.164, 16-16l0-89.376 l 36.688,36.688c 6.246,6.248, 16.378,6.248, 22.626,0
		c 6.25-6.248, 6.25-16.378,0-22.626l-64-64c-6.248-6.248-16.38-6.248-22.626,0l-64,64C 175.64,282.936, 175.64,293.066, 181.89,299.314z" horiz-adv-x="513"  />
<glyph unicode="&#xe016;" d="M 367.094,343.94l 64-112c 2.832-4.952, 2.808-11.036-0.052-15.968S 422.906,208.002, 417.204,208.002l-64,0 l0-32 c0-8.836-7.164-16-16-16l-160,0 
		c-8.836,0-16,7.164-16,16l0,32 l-64,0 c-5.704,0-10.976,3.036-13.84,7.968c-2.862,4.934-2.882,11.018-0.050,15.968l 64,112
		C 150.16,348.926, 155.46,352.002, 161.204,352.002l 48,0 l0-16 l-48,0 l-64-112l 80,0 l0-48 l 160,0 l0,48 l 80,0 l-64,112l-48,0 l0,16 l 48,0 C 358.946,352.002, 364.246,348.926, 367.094,343.94z
		 M 513.204,224.002l0-160 c0-17.672-14.328-32-32-32l-448,0 c-17.672,0-32,14.328-32,32l0,160 c0,5.8, 1.576,11.49, 4.56,16.464l 96,160
		c 5.784,9.636, 16.2,15.536, 27.44,15.536l 256,0 c 11.238,0, 21.656-5.898, 27.438-15.536l 96-160C 511.626,235.492, 513.204,229.802, 513.204,224.002z
		 M 481.204,224.002l-96,160l-256,0 l-96-160l0-160 l 448,0 L 481.204,224.002 z M 332.516,260.69c-3.124-3.124-7.218-4.688-11.31-4.688
		c-4.098,0-8.194,1.562-11.318,4.688l-36.684,36.688L 273.204,208.002 c0-8.836-7.168-16-16-16c-8.836,0-16,7.164-16,16L 241.204,297.378 l-36.688-36.688
		c-6.248-6.248-16.378-6.248-22.626,0c-6.25,6.248-6.25,16.378,0,22.626l 64,64c 6.248,6.248, 16.38,6.248, 22.626,0l 64-64
		C 338.766,277.068, 338.766,266.938, 332.516,260.69z" horiz-adv-x="513"  />
<glyph unicode="&#xe01f;" d="M 345.208,384.002c 57.434,0, 104-46.558, 104-104c0-22.84-7.384-43.946-19.868-61.102c 30.3-11.386, 51.868-40.618, 51.868-74.898
		c0-44.184-35.818-80-80-80l-304,0 c-35.352,0-64,28.652-64,64c0,35.352, 28.648,64, 64,64c 6.262,0, 12.312-0.914, 18.036-2.594
		c-11.27,13.786-18.036,31.398-18.036,50.594c0,44.184, 35.814,80, 80,80c 26.354,0, 49.728-12.75, 64.3-32.414
		C 245.4,341.484, 290.322,384.002, 345.208,384.002 M 345.208,416.002c-34.602,0-67.566-13.004-92.826-36.622c-11.718-10.954-21.278-23.712-28.392-37.686
		C 209.468,348.388, 193.514,352.002, 177.208,352.002c-61.76,0-112-50.242-112-112c0-7.012, 0.664-13.98, 1.96-20.812
		C 28.902,206.554, 1.208,170.452, 1.208,128.002c0-52.934, 43.064-96, 96-96l 304,0 c 61.756,0, 112,50.244, 112,112
		c0,23.238-7.062,45.534-20.418,64.476c-5.942,8.422-12.924,15.906-20.76,22.308c 6.050,15.552, 9.178,32.16, 9.178,49.214
		C 481.208,354.996, 420.196,416.002, 345.208,416.002L 345.208,416.002z" horiz-adv-x="513"  />
<glyph unicode="&#xe01a;" d="M 345.208,384.002c 57.434,0, 104-46.558, 104-104c0-22.84-7.384-43.946-19.868-61.102c 30.3-11.386, 51.868-40.618, 51.868-74.898
		c0-44.184-35.818-80-80-80l-304,0 c-35.352,0-64,28.652-64,64c0,35.352, 28.648,64, 64,64c 6.262,0, 12.312-0.914, 18.036-2.594
		c-11.27,13.786-18.036,31.398-18.036,50.594c0,44.184, 35.814,80, 80,80c 26.354,0, 49.728-12.75, 64.3-32.414
		C 245.4,341.484, 290.322,384.002, 345.208,384.002 M 345.208,416.002c-34.602,0-67.566-13.004-92.826-36.622c-11.718-10.954-21.278-23.712-28.392-37.686
		C 209.468,348.388, 193.514,352.002, 177.208,352.002c-61.76,0-112-50.242-112-112c0-7.012, 0.664-13.98, 1.96-20.812
		C 28.902,206.554, 1.208,170.452, 1.208,128.002c0-52.934, 43.064-96, 96-96l 304,0 c 61.756,0, 112,50.244, 112,112
		c0,23.238-7.062,45.534-20.418,64.476c-5.942,8.422-12.924,15.906-20.76,22.308c 6.050,15.552, 9.178,32.16, 9.178,49.214
		C 481.208,354.996, 420.196,416.002, 345.208,416.002L 345.208,416.002z M 332.518,187.318l-64,64c-6.246,6.248-16.378,6.248-22.626,0l-64-64
		c-6.25-6.248-6.25-16.378,0-22.626c 6.248-6.248, 16.378-6.248, 22.624,0l 36.688,36.688L 241.204,112.002 c0-8.836, 7.164-16, 16-16c 8.832,0, 16,7.164, 16,16
		l0,89.376 l 36.686-36.688c 3.124-3.124, 7.22-4.688, 11.318-4.688c 4.090,0, 8.188,1.562, 11.31,4.688
		C 338.768,170.938, 338.768,181.070, 332.518,187.318z" horiz-adv-x="513"  />
<glyph unicode="&#xe038;" d="M 447.506,352.002l-32,0 L 415.506,448.002 c0,17.672-14.328,32-32,32l-256,0 c-17.672,0-32-14.328-32-32l0-96 l-32,0 c-35.29,0-64-28.71-64-64l0-192 l0-32 l 32,0 l 64,0 l0-64 
		c0-17.672, 14.328-32, 32-32l 256,0 c 17.672,0, 32,14.328, 32,32l0,64 l 64,0 l 32,0 l0,32 L 511.506,288.002 C 511.506,323.292, 482.796,352.002, 447.506,352.002z M 127.506,448.002l 256,0 l0-96 
		l-256,0 L 127.506,448.002 z M 383.506,0.002l-256,0 l0,192 l 256,0 L 383.506,0.002 z M 479.506,96.002l-64,0 l0,96 c0,17.672-14.328,32-32,32l-256,0 c-17.672,0-32-14.328-32-32l0-96 l-64,0 L 31.506,288.002 
		c0,17.6, 14.398,32, 32,32l 384,0 c 17.6,0, 32-14.4, 32-32L 479.506,96.002 z M 351.506,144.002l-192,0 l0,16 l 192,0 L 351.506,144.002 z M 351.506,96.002l-192,0 l0,16 l 192,0 L 351.506,96.002 z M 351.506,48.002l-192,0 l0,16 
		l 192,0 L 351.506,48.002 z M 447.506,272.004c0-8.836-7.164-16-16-16c-8.836,0.002-15.996,7.166-16,16c 0.004,8.838, 7.164,16, 16,16
		S 447.506,280.84, 447.506,272.004z"  />
<glyph unicode="&#xe025;" d="M 449.204,352.002c 17.6,0, 32-14.4, 32-32l0-192 c0-17.6-14.4-32-32-32l-384,0 c-17.6,0-32,14.4-32,32L 33.204,320.002 c0,17.6, 14.4,32, 32,32L 449.204,352.002 
		 M 449.204,384.002l-384,0 c-35.29,0-64-28.71-64-64l0-192 c0-35.29, 28.71-64, 64-64l 384,0 c 35.29,0, 64,28.71, 64,64L 513.204,320.002 
		C 513.204,355.292, 484.494,384.002, 449.204,384.002L 449.204,384.002z M 257.204,192.004c 2.636,0, 5.274,0.652, 7.662,1.954l 175.996,95.998
		c 7.758,4.23, 10.616,13.95, 6.384,21.708c-4.23,7.756-13.952,10.616-21.708,6.384l-168.336-91.818L 88.868,318.046
		c-7.758,4.232-17.476,1.372-21.708-6.384c-4.23-7.758-1.374-17.476, 6.384-21.708l 175.996-95.998
		C 251.93,192.656, 254.568,192.004, 257.204,192.004L 257.204,192.004z" horiz-adv-x="513"  />
<glyph unicode="&#x66;" d="M 449.204,448.002l-32,0 L 417.204,464.002 c0,8.836-7.164,16-16,16s-16-7.164-16-16l0-16 l-64,0 L 321.204,464.002 c0,8.836-7.164,16-16,16s-16-7.164-16-16l0-16 l-64,0 L 225.204,464.002 
		c0,8.836-7.164,16-16,16s-16-7.164-16-16l0-16 l-64,0 L 129.204,464.002 c0,8.836-7.164,16-16,16s-16-7.164-16-16l0-16 l-32,0 c-35.29,0-64-28.71-64-64l0-352 
		c0-35.29, 28.71-64, 64-64l 384,0 c 35.29,0, 64,28.71, 64,64L 513.204,384.002 C 513.204,419.292, 484.494,448.002, 449.204,448.002z M 481.204,32.002
		c0-17.6-14.4-32-32-32l-384,0 c-17.6,0-32,14.4-32,32L 33.204,384.002 c0,17.6, 14.4,32, 32,32l 32,0 l0-16 c0-8.836, 7.164-16, 16-16s 16,7.164, 16,16l0,16 l 64,0 l0-16 
		c0-8.836, 7.164-16, 16-16s 16,7.164, 16,16l0,16 l 64,0 l0-16 c0-8.836, 7.164-16, 16-16s 16,7.164, 16,16l0,16 l 64,0 l0-16 c0-8.836, 7.164-16, 16-16s 16,7.164, 16,16l0,16 l 32,0 
		c 17.6,0, 32-14.4, 32-32L 481.204,32.002 z M 417.218,264.002c0-4.418-3.582-8-8-8c-0.004,0-0.010,0-0.014,0l-304,0 c-0.004,0-0.010,0-0.014,0
		c-4.418,0-8,3.582-8,8c0,4.418, 3.582,8, 8,8L 105.19,272.002 l 304.030,0 l0,0 C 413.636,272.002, 417.218,268.42, 417.218,264.002z M 417.218,200.002
		c0-4.418-3.582-8-8-8c-0.004,0-0.006,0-0.010,0L 105.2,192.002 c-0.004,0-0.006,0-0.010,0c-4.418,0-8,3.582-8,8c0,4.418, 3.582,8, 8,8l0,0 l 304.030,0 
		l0,0 C 413.636,208.002, 417.218,204.42, 417.218,200.002z M 417.218,136.002c0-4.418-3.582-8-8-8c-0.002,0-0.002,0-0.004,0L 105.194,128.002 
		c-0.002,0-0.002,0-0.004,0c-4.418,0-8,3.582-8,8c0,4.418, 3.582,8, 8,8l0,0l 304.030,0 l0,0C 413.636,144.002, 417.218,140.42, 417.218,136.002z
		 M 417.218,72.002c0-4.418-3.582-8-8-8L 105.19,64.002 c-4.418,0-8,3.582-8,8s 3.582,8, 8,8l 304.030,0 C 413.636,80.002, 417.218,76.42, 417.218,72.002z" horiz-adv-x="513"  />
<glyph unicode="&#xe01c;" d="M 137.204,416.002c 13.256,0, 24-10.744, 24-24s-10.744-24-24-24c-13.258,0-24,10.744-24,24S 123.946,416.002, 137.204,416.002 M 137.204,432.002
		c-22.056,0-40-17.944-40-40s 17.944-40, 40-40c 22.054,0, 40,17.944, 40,40S 159.258,432.002, 137.204,432.002L 137.204,432.002z M 377.204,416.002
		c 13.256,0, 24-10.744, 24-24s-10.744-24-24-24c-13.258,0-24,10.744-24,24S 363.946,416.002, 377.204,416.002 M 377.204,432.002c-22.056,0-40-17.944-40-40
		s 17.944-40, 40-40c 22.054,0, 40,17.944, 40,40S 399.258,432.002, 377.204,432.002L 377.204,432.002z M 449.204,480.002l-384,0 c-35.29,0-64-28.71-64-64l0-384 
		c0-35.29, 28.71-64, 64-64l 384,0 c 35.29,0, 64,28.71, 64,64L 513.204,416.002 C 513.204,451.292, 484.494,480.002, 449.204,480.002z M 65.204,448.002l 384,0 
		c 17.6,0, 32-14.4, 32-32l0-80 l-448,0 L 33.204,416.002 C 33.204,433.602, 47.602,448.002, 65.204,448.002z M 449.204,0.002l-384,0 c-17.602,0-32,14.4-32,32L 33.204,320.002 l 448,0 l0-288 
		C 481.204,14.402, 466.804,0.002, 449.204,0.002z M 337.204,192.002l-48,0 l0,48 c0,17.672-14.328,32-32,32s-32-14.328-32-32l0-48 l-48,0 
		c-17.672,0-32-14.328-32-32s 14.328-32, 32-32l 48,0 l0-48 c0-17.672, 14.328-32, 32-32s 32,14.328, 32,32l0,48 l 48,0 c 17.672,0, 32,14.328, 32,32
		S 354.876,192.002, 337.204,192.002z" horiz-adv-x="513"  />
<glyph unicode="&#xe021;" d="M 137.204,416.002c 13.256,0, 24-10.744, 24-24s-10.744-24-24-24c-13.258,0-24,10.744-24,24S 123.946,416.002, 137.204,416.002 M 137.204,432.002
		c-22.056,0-40-17.944-40-40s 17.944-40, 40-40c 22.054,0, 40,17.944, 40,40S 159.258,432.002, 137.204,432.002L 137.204,432.002z M 377.204,416.002
		c 13.256,0, 24-10.744, 24-24s-10.744-24-24-24c-13.258,0-24,10.744-24,24S 363.946,416.002, 377.204,416.002 M 377.204,432.002c-22.056,0-40-17.944-40-40
		s 17.944-40, 40-40c 22.054,0, 40,17.944, 40,40S 399.258,432.002, 377.204,432.002L 377.204,432.002z M 449.204,480.002l-384,0 c-35.29,0-64-28.71-64-64l0-384 
		c0-35.29, 28.71-64, 64-64l 384,0 c 35.29,0, 64,28.71, 64,64L 513.204,416.002 C 513.204,451.292, 484.494,480.002, 449.204,480.002z M 65.204,448.002l 384,0 
		c 17.6,0, 32-14.4, 32-32l0-80 l-448,0 L 33.204,416.002 C 33.204,433.602, 47.602,448.002, 65.204,448.002z M 449.204,0.002l-384,0 c-17.602,0-32,14.4-32,32L 33.204,320.002 l 448,0 l0-288 
		C 481.204,14.402, 466.804,0.002, 449.204,0.002z M 161.204,48.002c 17.672,0, 32,14.328, 32,32l0,144 c0,17.672-14.328,32-32,32l-16,0 
		c-17.672,0-32-14.328-32-32c0-11.844, 6.434-22.186, 16-27.718L 129.204,80.002 C 129.204,62.33, 143.532,48.002, 161.204,48.002L 161.204,48.002z M 321.186,48.002
		c 12.26,0, 23.958,7.086, 29.26,19.010l 64,143.996c 4.398,9.898, 3.492,21.35-2.41,30.432s-16,14.562-26.832,14.562l-96,0 
		c-17.672,0-32-14.328-32-32s 14.328-32, 32-32l 46.76,0 l-44.002-99c-7.178-16.148, 0.098-35.058, 16.246-42.236
		C 312.432,48.89, 316.84,48.002, 321.186,48.002L 321.186,48.002z" horiz-adv-x="513"  />
<glyph unicode="&#x26;" d="M 449.204,416.002l-320,0 C 104.96,416.002, 82.8,402.306, 71.96,380.622l-64-128c-9.008-18.018-9.008-39.224,0-57.242l 64-128
		C 82.8,45.698, 104.96,32.002, 129.204,32.002l 320,0 c 35.344,0, 64,28.654, 64,64L 513.204,352.002 C 513.204,387.348, 484.546,416.002, 449.204,416.002z M 481.204,96.002
		c0-17.672-14.328-32-32-32l-320,0 c-12.122,0-23.204,6.848-28.622,17.69l-64,128c-4.504,9.008-4.504,19.612,0,28.622l 64,128
		C 106,377.154, 117.082,384.002, 129.204,384.002l 320,0 c 17.672,0, 32-14.328, 32-32L 481.204,96.002 z M 113.204,240.002c 8.822,0, 16-7.178, 16-16s-7.178-16-16-16
		c-8.824,0-16,7.178-16,16S 104.378,240.002, 113.204,240.002 M 113.204,256.002c-17.672,0-32-14.328-32-32s 14.328-32, 32-32s 32,14.328, 32,32
		S 130.876,256.002, 113.204,256.002L 113.204,256.002z" horiz-adv-x="513"  />
<glyph unicode="&#x25;" d="M 513.204,384.002l0-256 c0-23.684-12-44.348-32-55.416L 481.204,384.002 c0,17.672-14.332,32-32.004,32L 137.796,416.002 c 11.378,19.71, 32.45,32, 55.402,32l 256,0 
		C 484.542,448.002, 513.204,419.348, 513.204,384.002z M 449.204,320.002l0-256 c0-35.346-28.658-64-64-64l-256,0 c-24.246,0-46.406,13.696-57.246,35.378
		l-64,128c-9.004,18.018-9.004,39.224,0,57.242l 64,128C 82.796,370.306, 104.958,384.002, 129.204,384.002l 256,0 C 420.544,384.002, 449.204,355.348, 449.204,320.002z
		 M 417.204,320.002c0,17.672-14.328,32-32,32l-256,0 c-12.124,0-23.206-6.848-28.624-17.69l-64-128c-4.504-9.008-4.504-19.612,0-28.622l 64-128
		c 5.418-10.842, 16.498-17.69, 28.624-17.69l 256,0 c 17.672,0, 32,14.328, 32,32L 417.204,320.002 z M 113.204,208.002c-8.826,0-16-7.178-16-16s 7.174-16, 16-16
		c 8.82,0, 16,7.178, 16,16S 122.024,208.002, 113.204,208.002 M 113.204,224.002c 17.672,0, 32-14.328, 32-32s-14.328-32-32-32c-17.674,0-32,14.328-32,32
		S 95.53,224.002, 113.204,224.002L 113.204,224.002z" horiz-adv-x="513"  />
<glyph unicode="&#x2d;" d="M 449.204,416.002l-320,0 C 104.96,416.002, 82.8,402.306, 71.96,380.624l-64-128c-9.012-18.018-9.012-39.224,0-57.242l 64-128
		C 82.8,45.698, 104.96,32.002, 129.204,32.002l 320,0 c 35.344,0, 64,28.652, 64,64L 513.204,352.002 C 513.204,387.35, 484.546,416.002, 449.204,416.002z M 481.204,96.002
		c0-17.672-14.328-32-32-32l-320,0 c-12.122,0-23.204,6.848-28.622,17.69l-64,128c-4.504,9.010-4.504,19.612,0,28.622l 64,128
		C 106,377.154, 117.082,384.002, 129.204,384.002l 320,0 c 17.672,0, 32-14.328, 32-32L 481.204,96.002 z M 375.832,182.628c 12.496-12.496, 12.496-32.76,0-45.256
		c-6.25-6.246-14.442-9.372-22.628-9.372c-8.192,0-16.38,3.124-22.628,9.372l-41.372,41.374l-41.372-41.374
		c-6.25-6.246-14.442-9.372-22.628-9.372c-8.192,0-16.38,3.124-22.628,9.372c-12.496,12.496-12.496,32.76,0,45.256L 243.95,224.002
		l-41.376,41.374c-12.496,12.496-12.496,32.76,0,45.256s 32.758,12.496, 45.258,0l 41.372-41.374l 41.372,41.374
		c 12.496,12.496, 32.758,12.496, 45.258,0c 12.496-12.496, 12.496-32.76,0-45.256L 334.458,224.002L 375.832,182.628z" horiz-adv-x="513"  />
<glyph unicode="&#x29;" d="M 449.204,352.002l-112,0 c-35.29,0-64-28.71-64-64l0-32 l-32,0 L 241.204,288.002 c0,35.29-28.71,64-64,64l-112,0 c-35.29,0-64-28.71-64-64l0-128 
		c0-35.29, 28.71-64, 64-64l 112,0 c 35.29,0, 64,28.71, 64,64l0,32 l 32,0 l0-32 c0-35.29, 28.71-64, 64-64l 112,0 c 35.29,0, 64,28.71, 64,64L 513.204,288.002 
		C 513.204,323.292, 484.492,352.002, 449.204,352.002z M 353.204,192.002l 16,0 c 8.836,0, 16,7.164, 16,16l0,32 c0,8.836-7.164,16-16,16l-16,0 l0,16 l 80,0 l0-96 l-80,0 L 353.204,192.002 z
		 M 369.204,240.002l0-32 l-224,0 l0,32 L 369.204,240.002 z M 161.204,256.002l-16,0 c-8.836,0-16-7.164-16-16l0-32 c0-8.836, 7.164-16, 16-16l 16,0 l0-16 l-80,0 l0,96 l 80,0 L 161.204,256.002 z M 209.204,160.002
		c0-17.6-14.4-32-32-32l-112,0 c-17.602,0-32,14.4-32,32L 33.204,288.002 c0,17.6, 14.398,32, 32,32l 112,0 c 17.6,0, 32-14.4, 32-32l0-32 l-32,0 l0,16 c0,8.836-7.164,16-16,16l-80,0 
		c-8.836,0-16-7.164-16-16l0-96 c0-8.836, 7.164-16, 16-16l 80,0 c 8.836,0, 16,7.164, 16,16l0,16 l 32,0 L 209.204,160.002 z M 481.204,160.002c0-17.6-14.4-32-32-32l-112,0 
		c-17.602,0-32,14.4-32,32l0,32 l 32,0 l0-16 c0-8.836, 7.164-16, 16-16l 80,0 c 8.836,0, 16,7.164, 16,16l0,96 c0,8.836-7.164,16-16,16l-80,0 c-8.836,0-16-7.164-16-16l0-16 
		l-32,0 L 305.204,288.002 c0,17.6, 14.398,32, 32,32l 112,0 c 17.6,0, 32-14.4, 32-32L 481.204,160.002 z" horiz-adv-x="513"  />
<glyph unicode="&#x24;" d="M 449.204,384.002l-224,0 c-35.29,0-64-28.712-64-64l0-16 l-96,0 c-35.29,0-64-28.712-64-64l0-112 c0-35.29, 28.71-64, 64-64l 224,0 
		c 35.29,0, 64,28.71, 64,64l0,16 l 96,0 c 35.29,0, 64,28.71, 64,64L 513.204,320.002 C 513.204,355.29, 484.492,384.002, 449.204,384.002z M 289.204,304.002l 144,0 l0-80 l-80,0 l0,16 
		C 353.204,275.29, 324.492,304.002, 289.204,304.002z M 225.204,144.002l-144,0 l0,80 l 80,0 l0-16 C 161.204,172.712, 189.914,144.002, 225.204,144.002z M 321.204,128.002
		c0-17.6-14.4-32-32-32l-224,0 c-17.602,0-32,14.4-32,32l0,112 c0,17.6, 14.398,32, 32,32l 96,0 l0-32 l-80,0 c-8.836,0-16-7.164-16-16l0-80 c0-8.836, 7.164-16, 16-16
		l 192,0 c 8.836,0, 16,7.164, 16,16l0,80 c0,8.836-7.164,16-16,16l-32,0 l0,32 l 48,0 c 17.6,0, 32-14.4, 32-32L 321.204,128.002 z M 481.204,208.002c0-17.6-14.4-32-32-32l-96,0 l0,32 l 80,0 
		c 8.836,0, 16,7.164, 16,16L 449.204,304.002 c0,8.836-7.164,16-16,16l-192,0 c-8.836,0-16-7.164-16-16l0-80 c0-8.836, 7.164-16, 16-16l 32,0 l0-32 l-48,0 c-17.602,0-32,14.4-32,32L 193.204,320.002 
		c0,17.6, 14.398,32, 32,32l 224,0 c 17.6,0, 32-14.4, 32-32L 481.204,208.002 z" horiz-adv-x="513"  />
<glyph unicode="&#xe0c2;" d="M 255.842,176c-7.64-45.342-47.158-80-94.638-80l-64,0 c-52.936,0-96,43.066-96,96l0,64 c0,52.934, 43.064,96, 96,96l 64,0 
		c 47.48,0, 86.998-34.658, 94.638-80L 188.852,272 c-5.558,9.538-15.874,16-27.648,16l-64,0 c-17.6,0-32-14.4-32-32l0-64 c0-17.6, 14.4-32, 32-32l 64,0 
		c 11.776,0, 22.090,6.462, 27.648,16L 255.842,176 z M 417.204,352l-64,0 c-47.482,0-86.998-34.658-94.64-80l 66.992,0 
		c 5.556,9.538, 15.872,16, 27.648,16l 64,0 c 17.6,0, 32-14.4, 32-32l0-64 c0-17.6-14.4-32-32-32l-64,0 c-11.778,0-22.092,6.462-27.648,16l-66.992,0 
		c 7.642-45.342, 47.158-80, 94.64-80l 64,0 c 52.936,0, 96,43.066, 96,96l0,64 C 513.204,308.934, 470.14,352, 417.204,352z M 353.204,192
		c 17.674,0, 32,14.328, 32,32s-14.326,32-32,32l-192,0 c-17.674,0-32-14.328-32-32s 14.326-32, 32-32L 353.204,192 L 353.204,192z" horiz-adv-x="513"  />
<glyph unicode="&#x23;" d="M 257.208,416.002c 17.642,0, 32-14.356, 32-32s-14.358-32-32-32c-17.648,0-32,14.356-32,32S 239.558,416.002, 257.208,416.002 M 257.208,432.002
		c-26.516,0-48-21.492-48-48s 21.484-48, 48-48c 26.51,0, 48,21.492, 48,48S 283.716,432.002, 257.208,432.002L 257.208,432.002z M 494.028,158.38
		c-21.192,15.92-51.274,11.646-67.196-9.55c-30.622-40.774-73.624-68.38-121.624-79.422L 305.208,192.002 l 47.964,0 c 26.508,0, 48,21.49, 48,48
		s-21.492,48-48,48l-47.964,0 l0,12.914 c 28,16.624, 47.988,47.628, 47.988,83.086c0,52.936-43.062,96-95.988,96
		c-52.934,0-95.996-43.064-95.996-96c0-35.458, 19.996-66.46, 47.996-83.086L 209.208,288.002 L 161.192,288.002 c-26.508,0-47.996-21.49-47.996-48
		s 21.488-48, 47.996-48l 48.016,0 l0-122.594 c-48,11.042-91.012,38.648-121.632,79.422c-15.92,21.196-46.002,25.474-67.198,9.55
		c-21.202-15.92-25.47-46.010-9.552-67.208c 28.082-37.39, 64.886-68.374, 106.434-89.6C 160.246-20.388, 208.64-31.998, 257.208-31.998
		c 48.56,0, 96.952,11.61, 139.938,33.572c 41.546,21.226, 78.352,52.208, 106.434,89.6C 519.502,112.37, 515.222,142.46, 494.028,158.38z
		 M 477.998,110.392c-25.18-33.522-58.168-61.296-95.406-80.32C 343.54,10.12, 301.348,0.002, 257.208,0.002
		c-44.152,0-86.336,10.118-125.39,30.070c-37.238,19.024-70.23,46.798-95.406,80.32c-5.308,7.066-3.88,17.096, 3.184,22.402
		c 7.068,5.308, 17.096,3.88, 22.398-3.184c 43.364-57.734, 108.006-92.536, 179.214-97.082L 241.208,224.002 L 161.192,224.002 c-8.836,0-15.998,7.164-15.998,16
		s 7.162,16, 15.998,16l 80.016,0 L 241.208,322.018 C 213.602,329.124, 193.21,354.18, 193.21,384.002c0,35.348, 28.648,64, 63.996,64
		c 35.342,0, 63.988-28.652, 63.988-64c0-29.822-19.988-54.878-47.988-61.984L 273.206,256.002 l 79.964,0 c 8.84,0, 16-7.164, 16-16s-7.16-16-16-16l-79.964,0 l0-191.472 
		c 72,4.546, 135.84,39.348, 179.208,97.082c 5.304,7.066, 15.33,8.492, 22.396,3.184C 481.878,127.488, 483.3,117.458, 477.998,110.392z" horiz-adv-x="513"  />
<glyph unicode="&#x28;" d="M 387.676,351.94c-0.816,0.042-1.64,0.062-2.468,0.062c-0.978,0-1.944-0.040-2.906-0.096
			c-29.176-0.982-63.15-16.788-106.594-49.602c-6.556-4.954-12.782-9.89-18.504-14.574c-5.722,4.684-11.946,9.622-18.496,14.57
			c-43.402,32.782-77.354,48.584-106.512,49.6C 131.208,351.96, 130.21,352.002, 129.208,352.002c-70.58,0-128-57.42-128-127.998
			c0-69.722, 56.042-126.564, 125.448-127.934c 0.842-0.044, 1.694-0.068, 2.552-0.068c 0.168,0, 0.344,0.016, 0.516,0.016
			c 0.766,0.010, 1.534,0.034, 2.294,0.078c 29.194,0.954, 63.198,16.754, 106.69,49.604c 6.55,4.954, 12.78,9.89, 18.5,14.574
			c 5.72-4.684, 11.946-9.622, 18.5-14.57c 43.444-32.814, 77.418-48.62, 106.594-49.602c 0.962-0.056, 1.928-0.096, 2.906-0.096
			c 0.828,0, 1.652,0.022, 2.468,0.062c 69.44,1.328, 125.532,58.186, 125.532,127.936S 457.116,350.612, 387.676,351.94z M 385.208,128.006
			c-40.454,0-102.286,51.256-128,74.26C 231.494,179.262, 169.656,128.002, 129.208,128.002c-0.054,0-0.106,0.008-0.16,0.008
			c-52.86,0.084-95.84,43.112-95.84,95.994c0,52.934, 43.062,96, 96,96c 0.308,0, 0.618-0.032, 0.926-0.046
			c 40.466-0.762, 101.548-51.386, 127.070-74.218c 25.71,23.004, 87.548,74.266, 128.004,74.266c 52.932,0, 96-43.066, 96-96
			S 438.138,128.006, 385.208,128.006zM 129.028,288.002c-35.198-0.032-63.82-28.73-63.82-64c0-35.29, 28.652-64, 63.872-64c0,0, 0.028,0, 0.042,0
			c 24.020,0.038, 72,35.554, 104.086,63.996c-32.106,28.458-80.12,64-104.128,64C 129.062,287.998, 129.042,288.002, 129.028,288.002z M 208.468,223.996
			c-5.548-4.6-11.714-9.534-18.226-14.464c-42.692-32.308-59.14-33.514-61.106-33.534c-0.016,0-0.040,0.004-0.058,0.004
			c-26.414,0-47.906,21.534-47.906,48c0,26.45, 21.462,47.968, 47.856,48c 0.016,0, 0.036-0.004, 0.050-0.004
			c 1.71,0, 17.974-0.934, 60.708-33.192C 196.454,233.776, 202.778,228.712, 208.468,223.996zM 385.328,288.002c-24.008,0-72.022-35.542-104.122-64c 32.1-28.458, 80.114-64, 104.122-64c 35.222,0, 63.878,28.71, 63.878,64
			S 420.55,288.002, 385.328,288.002z M 385.328,176.002c-1.71,0-17.972,0.932-60.704,33.19c-6.668,5.032-12.996,10.096-18.688,14.812
			c 5.554,4.6, 11.716,9.534, 18.23,14.464C 367.23,271.060, 383.606,272.002, 385.328,272.002c 26.418,0, 47.908-21.534, 47.908-48
			S 411.746,176.002, 385.328,176.002z" horiz-adv-x="513"  />
<glyph unicode="&#xe0c8;" d="M 401.204,336c-15.958,0-44.326-4.692-106.124-45.246c-14.504-9.52-27.73-18.976-37.876-26.484
		c-10.144,7.508-23.372,16.964-37.876,26.484c-61.8,40.554-90.168,45.246-106.124,45.246c-61.76,0-112-50.244-112-112
		c0-61.758, 50.24-112, 112-112c 15.958,0, 44.324,4.69, 106.124,45.246c 14.504,9.518, 27.73,18.974, 37.876,26.484
		c 10.144-7.51, 23.372-16.966, 37.876-26.484c 61.798-40.556, 90.166-45.246, 106.124-45.246c 61.758,0, 112,50.242, 112,112
		C 513.204,285.756, 462.962,336, 401.204,336z M 183.818,210.492c-51.17-33.526-68.776-34.492-70.614-34.492
		c-26.466,0-48,21.532-48,48c0,26.466, 21.534,48, 48,48c 1.838,0, 19.444-0.968, 70.614-34.496c 6.978-4.57, 13.682-9.162, 19.84-13.504
		C 197.5,219.656, 190.796,215.062, 183.818,210.492z M 401.204,176c-1.838,0-19.444,0.966-70.616,34.492
		c-6.976,4.57-13.68,9.164-19.838,13.508c 6.158,4.342, 12.862,8.934, 19.838,13.504c 51.172,33.528, 68.778,34.496, 70.616,34.496
		c 26.466,0, 48-21.534, 48-48C 449.204,197.532, 427.67,176, 401.204,176z" horiz-adv-x="513"  />
<glyph unicode="&#x44;" d="M 305.204,0.002l-96,0 c-8.836,0-16,7.164-16,16l0,16 l-176,0 c-8.836,0-16,7.164-16,16L 1.204,352.002 c0,8.836, 7.164,16, 16,16c 8.836,0, 16-7.164, 16-16l0-288 l 176,0 
		c 8.836,0, 16-7.164, 16-16l0-16 l 64,0 l0,16 c0,8.836, 7.164,16, 16,16l 176,0 L 481.204,352.002 c0,8.836, 7.164,16, 16,16s 16-7.164, 16-16l0-304 c0-8.836-7.164-16-16-16l-176,0 l0-16 
		C 321.204,7.166, 314.040,0.002, 305.204,0.002L 305.204,0.002z M 465.204,384.002l0-152 l0-136 c0-6.884-4.404-12.998-10.934-15.176
		c-1.666-0.556-3.376-0.824-5.064-0.824c-4.936,0-9.712,2.29-12.794,6.39C 416.544,112.836, 386.216,128.002, 353.204,128.002
		s-63.342-15.166-83.208-41.61c-3.024-4.022-7.762-6.39-12.792-6.39s-9.77,2.368-12.792,6.39
		C 224.544,112.836, 194.216,128.002, 161.204,128.002s-63.342-15.166-83.208-41.61c-3.082-4.1-7.86-6.39-12.794-6.39
		c-1.69,0-3.398,0.268-5.064,0.824c-6.53,2.18-10.934,8.292-10.934,15.176l0,136 L 49.204,384.002 c0,3.466, 1.124,6.838, 3.208,9.61
		c 12.406,16.512, 28.658,30.194, 47.002,39.568C 118.39,442.878, 139.758,448.002, 161.204,448.002s 42.812-5.124, 61.792-14.822
		c 12.574-6.426, 24.166-14.876, 34.208-24.874c 10.042,9.998, 21.634,18.448, 34.208,24.874C 310.39,442.878, 331.758,448.002, 353.204,448.002
		s 42.812-5.124, 61.792-14.822c 18.344-9.374, 34.596-23.054, 47.002-39.568C 464.078,390.84, 465.204,387.468, 465.204,384.002z M 249.204,105.536
		L 249.204,392.002 c0,0.472, 0.060,0.928, 0.138,1.376C 227.418,417.116, 196.060,432.002, 161.204,432.002c-39.258,0-74.106-18.856-96-48l0-152 l0-136 
		c 21.894,29.144, 56.742,48, 96,48C 195.986,144.002, 227.286,129.182, 249.204,105.536z M 449.204,384.002c-21.894,29.144-56.742,48-96,48
		c-34.858,0-66.216-14.886-88.138-38.624c 0.078-0.448, 0.138-0.904, 0.138-1.376l0-286.466 C 287.12,129.182, 318.42,144.002, 353.204,144.002
		c 39.258,0, 74.106-18.856, 96-48l0,136 L 449.204,384.002 z" horiz-adv-x="513"  />
<glyph unicode="&#x4f;" d="M 500.424,409.586C 466.972,434.718, 427.128,448.002, 385.202,448.002c-30.272,0-60.44-7.238-87.24-20.93
		c-14.688-7.504-28.424-16.964-40.758-28c-12.336,11.036-26.072,20.496-40.76,28C 189.644,440.764, 159.476,448.002, 129.204,448.002
		C 87.28,448.002, 47.438,434.718, 13.986,409.59c-8.046-6.044-12.782-15.522-12.782-25.586l0-320.004 c0-12.124, 6.854-23.208, 17.7-28.626
		c 4.526-2.26, 9.424-3.374, 14.296-3.374c 6.808,0, 13.572,2.17, 19.222,6.414c 22.282,16.738, 48.832,25.584, 76.782,25.584
		c 40.634,0, 77.962-18.668, 102.416-51.216c 6.044-8.044, 15.522-12.78, 25.584-12.78c 10.064,0, 19.542,4.734, 25.586,12.78
		c 24.45,32.548, 61.778,51.216, 102.412,51.216c 27.952,0, 54.502-8.848, 76.782-25.584c 5.65-4.244, 12.416-6.416, 19.224-6.416
		c 4.876,0, 9.77,1.112, 14.294,3.374c 10.848,5.418, 17.702,16.502, 17.702,28.626L 513.204,384.002 C 513.204,394.064, 508.47,403.544, 500.424,409.586z
		 M 129.204,95.998c-36.022,0-69.258-11.91-96-31.998L 33.204,384.004 C 59.946,404.092, 93.182,416.002, 129.204,416.002c 47.794,0, 90.682-20.968, 120-54.194
		L 249.204,41.802 C 219.886,75.030, 177,95.998, 129.204,95.998z M 481.204,63.998c-26.742,20.090-59.98,32-96.002,32
		c-47.794,0-90.682-20.968-119.998-54.194L 265.204,361.808 C 294.52,395.034, 337.408,416.002, 385.202,416.002c 36.022,0, 69.26-11.91, 96.002-32L 481.204,63.998 z" horiz-adv-x="513"  />
<glyph unicode="&#x4e;" d="M 513.204,208.002l0,16 c0,5.8-1.576,11.49-4.56,16.464l-96,160c-5.784,9.636-16.2,15.536-27.44,15.536l-256,0 
		c-11.71,0-22.486-6.396-28.092-16.676c-0.996-1.828-24.674-45.306-48.756-95.478C 6.506,208.328, 1.204,176.006, 1.204,160.002l0-16 
		c0-61.758, 50.244-112, 112-112l 368,0 c 17.672,0, 32,14.328, 32,32l0,16 c0,11.844-6.434,22.188-16,27.718l0,72.562 
		C 506.77,185.814, 513.204,196.158, 513.204,208.002z M 65.204,144.002c0,26.51, 22,48, 48,48c 0.024,0, 352,0, 352,0l0-96.004 l-352,0.004
		C 87.204,96.002, 65.204,117.492, 65.204,144.002z M 481.204,64.002l-368,0 c-44.184,0-80,35.816-80,80l0,16 c0,47.996, 96,224, 96,224l 256,0 l 96-160l0-16 
		c0,0-367.888,0-368,0c-34.78,0-64-28.71-64-64c0-35.148, 29.408-63.774, 64-64c 0.136-0.004, 368,0, 368,0L 481.204,64.002 z" horiz-adv-x="513"  />
<glyph unicode="&#x65;" d="M 385.204,448.002l0-448 l-128,128l-128-128L 129.204,448.002 L 385.204,448.002  M 385.204,480.002l-256,0 c-17.672,0-32-14.326-32-32l0-448 c0-12.942, 7.796-24.61, 19.754-29.564
		c 3.958-1.64, 8.118-2.436, 12.24-2.436c 8.328,0, 16.512,3.25, 22.636,9.374l 105.372,105.372l 105.372-105.372
		c 6.124-6.122, 14.308-9.374, 22.636-9.374c 4.122,0, 8.28,0.796, 12.24,2.436c 11.958,4.954, 19.754,16.622, 19.754,29.564L 417.208,448.002 
		C 417.204,465.676, 402.876,480.002, 385.204,480.002L 385.204,480.002z" horiz-adv-x="513"  />
<glyph unicode="&#x7d;" d="M 433.204,480.002l-208,0 c-52.938,0-96-43.066-96-96l0-256 l-48,0 c-44.114,0-80-35.888-80-80s 35.886-80, 80-80l 272,0 
			c 35.29,0, 64,28.71, 64,64L 417.204,320.002 l 16,0 c 44.11,0, 80,35.888, 80,80S 477.312,480.002, 433.204,480.002z M 129.204,32.002c0-17.644-14.356-32-32-32l-16,0 
			c-26.468,0-48,21.534-48,48s 21.532,48, 48,48l 48,0 L 129.204,32.002 z M 385.204,32.002c0-17.644-14.356-32-32-32L 152.61,0.002 
			c 5.46,9.418, 8.594,20.352, 8.594,32L 161.204,384.002 c0,35.2, 28.796,64, 64,64c 26.464,0, 48-21.534, 48-48s-21.536-48-48-48c-8.836,0-16-7.164-16-16
			s 7.164-16, 16-16l 160,0 L 385.204,32.002 z M 433.204,352.002l-144.040,0 c 10.066,13.378, 16.040,30.006, 16.040,48s-5.972,34.622-16.040,48l 144.040,0 c 26.464,0, 48-21.534, 48-48
			S 459.668,352.002, 433.204,352.002zM 209.192,264.002c0-4.418, 3.582-8, 8-8l 112.020,0 c 4.418,0, 8,3.582, 8,8c0,4.418-3.582,8-8,8l-112.020,0 
			C 212.774,272.002, 209.192,268.42, 209.192,264.002zM 329.21,208.002l-112.020,0 c-4.418,0-8-3.582-8-8s 3.582-8, 8-8l 112.020,0 c 4.418,0, 8,3.582, 8,8S 333.628,208.002, 329.21,208.002zM 329.21,144.002l-112.020,0 c-4.418,0-8-3.582-8-8c0-4.418, 3.582-8, 8-8l 112.020,0 c 4.418,0, 8,3.582, 8,8
			C 337.21,140.422, 333.628,144.002, 329.21,144.002zM 329.21,80.002l-0.004,0 l-112.004,0 l-0.012,0c-4.418,0-8-3.582-8-8s 3.582-8, 8-8l0,0 l 112.020,0 l0,0 c 4.418,0, 8,3.582, 8,8
			C 337.21,76.422, 333.628,80.002, 329.21,80.002z" horiz-adv-x="513"  />
<glyph unicode="&#xe01d;" d="M 481.204,480.002l-384,0 c-17.672,0-32-14.328-32-32l0-32 l-32,0 c-17.672,0-32-14.328-32-32l0-352 c0-35.29, 28.71-64, 64-64l 384,0 
		c 35.29,0, 64,28.71, 64,64L 513.204,448.002 C 513.204,465.674, 498.876,480.002, 481.204,480.002z M 481.204,32.002c0-17.6-14.4-32-32-32l-384,0 c-17.602,0-32,14.4-32,32L 33.204,384.002 
		l 48,0 l0-320 c0-4.418, 3.582-8, 8-8s 8,3.582, 8,8L 97.204,384.002 L 97.204,448.002 l 384,0 L 481.204,32.002 z M 145.204,288.002l 112,0 c 8.836,0, 16,7.164, 16,16L 273.204,400.002 c0,8.836-7.164,16-16,16l-112,0 
		c-8.836,0-16-7.164-16-16l0-96 C 129.204,295.166, 136.368,288.002, 145.204,288.002z M 145.204,400.002l 112,0 l0-96 l-112,0 L 145.204,400.002 z M 305.204,376.002c0,4.418, 3.582,8, 8,8l 128,0 
		c 4.418,0, 8-3.582, 8-8c0-4.418-3.582-8-8-8l-128,0 C 308.786,368.002, 305.204,371.584, 305.204,376.002z M 305.204,312.002c0,4.418, 3.582,8, 8,8l 128,0 
		c 4.418,0, 8-3.582, 8-8c0-4.418-3.582-8-8-8l-128,0 C 308.786,304.002, 305.204,307.584, 305.204,312.002z M 305.204,248.002c0,4.418, 3.582,8, 8,8l 128,0 
		c 4.418,0, 8-3.582, 8-8c0-4.418-3.582-8-8-8l-128,0 C 308.786,240.002, 305.204,243.584, 305.204,248.002z M 305.204,184.002c0,4.418, 3.582,8, 8,8l 128,0 
		c 4.418,0, 8-3.582, 8-8c0-4.418-3.582-8-8-8l-128,0 C 308.786,176.002, 305.204,179.584, 305.204,184.002z M 305.204,120.002c0,4.418, 3.582,8, 8,8l 128,0 
		c 4.418,0, 8-3.582, 8-8c0-4.418-3.582-8-8-8l-128,0 C 308.786,112.002, 305.204,115.584, 305.204,120.002z M 305.204,56.002c0,4.418, 3.582,8, 8,8l 128,0 
		c 4.418,0, 8-3.582, 8-8c0-4.418-3.582-8-8-8l-128,0 C 308.786,48.002, 305.204,51.584, 305.204,56.002z M 129.204,248.002c0,4.418, 3.582,8, 8,8l 128,0 
		c 4.418,0, 8-3.582, 8-8c0-4.418-3.582-8-8-8l-128,0 C 132.786,240.002, 129.204,243.584, 129.204,248.002z M 129.204,184.002c0,4.418, 3.582,8, 8,8l 128,0 
		c 4.418,0, 8-3.582, 8-8c0-4.418-3.582-8-8-8l-128,0 C 132.786,176.002, 129.204,179.584, 129.204,184.002z M 129.204,120.002c0,4.418, 3.582,8, 8,8l 128,0 
		c 4.418,0, 8-3.582, 8-8c0-4.418-3.582-8-8-8l-128,0 C 132.786,112.002, 129.204,115.584, 129.204,120.002z M 129.204,56.002c0,4.418, 3.582,8, 8,8l 128,0 
		c 4.418,0, 8-3.582, 8-8c0-4.418-3.582-8-8-8l-128,0 C 132.786,48.002, 129.204,51.584, 129.204,56.002z" horiz-adv-x="513"  />
<glyph unicode="&#xe06a;" d="M 501.49,440.746c-5.77,4.73-12.952,7.254-20.286,7.254c-2.090,0-4.194-0.204-6.276-0.622l-149.236-29.848L 207.514,476.622
		c-4.468,2.234-9.372,3.378-14.31,3.378c-2.096,0-4.198-0.208-6.276-0.622l-160-32c-14.96-2.992-25.724-16.124-25.724-31.378l0-384 
		c0-9.586, 4.298-18.668, 11.71-24.746c 5.77-4.73, 12.956-7.254, 20.29-7.254c 2.090,0, 4.192,0.204, 6.276,0.622l 149.234,29.848
		l 118.18-59.090c 4.468-2.234, 9.372-3.378, 14.31-3.378c 2.096,0, 4.198,0.208, 6.276,0.622l 160,32c 14.958,2.992, 25.724,16.124, 25.724,31.378
		l0,384 C 513.204,425.586, 508.906,434.668, 501.49,440.746z M 313.204,388l0-293.836 c-20.050,14.476-29.922,35.648-41.068,59.608
		c-14.138,30.396-30.112,64.72-70.932,90.686L 201.204,444 L 313.204,388z M 33.204,32l0,384 l 152,30.4l0-198.688 
		c-30.352-1.958-55.832-15.124-74.028-38.428c-23.614-30.242-31.94-74.394-21.732-115.224c 1.072-4.29, 5.414-6.896, 9.7-5.822
		c 4.29,1.072, 6.896,5.416, 5.822,9.702c-8.902,35.614-1.516,75.454, 18.82,101.498c 15.066,19.296, 36.186,30.336, 61.418,32.25l0-169.288 
		L 33.204,32z M 201.204,60l0,165.078 c 30.614-22.578, 43.71-50.73, 56.426-78.054c 13.144-28.252, 25.606-55, 55.574-71.82
		l0-71.204 L 201.204,60z M 481.204,32l-152-30.4l0,70.886 c 21.804,2.494, 42.91,15.076, 60.156,36.112
		c 31.488,38.408, 45.828,98.276, 35.692,148.97c-0.868,4.334-5.090,7.152-9.416,6.276c-4.33-0.866-7.142-5.080-6.276-9.412
		c 9.252-46.256-3.758-100.786-32.376-135.69c-10.246-12.5-26.478-27.104-47.782-30.136L 329.202,385.6 l 152,30.4L 481.202,32 z M 455.602,283.2
		c-1.57-2.094-3.974-3.2-6.406-3.2c-1.672,0-3.354,0.522-4.792,1.6l-25.798,19.348l-27.154-33.948c-1.578-1.972-3.904-3-6.25-3
		c-1.756,0-3.518,0.572-4.992,1.754c-3.45,2.76-4.012,7.792-1.25,11.242l 26.844,33.556l-25.396,19.046
		c-3.536,2.65-4.252,7.666-1.6,11.202c 2.652,3.532, 7.664,4.248, 11.198,1.6l 25.798-19.348l 27.154,33.944
		c 2.76,3.452, 7.794,4.012, 11.244,1.25c 3.45-2.76, 4.012-7.792, 1.25-11.246l-26.846-33.552l 25.398-19.046
		C 457.538,291.75, 458.254,286.734, 455.602,283.2z" horiz-adv-x="513"  />
<glyph unicode="&#xe014;" d="M 449.204,447.518l-384,0 c-35.29,0-64-28.71-64-64l0-256 c0-35.292, 28.71-64, 64-64l 34.86,0 c-10.914-12.094-14.078-27.214-8.4-40.922
		c 5.986-14.452, 20.020-23.078, 37.542-23.078l 256,0 c 17.522,0, 31.554,8.626, 37.54,23.078c 5.68,13.708, 2.516,28.828-8.402,40.922l 34.864,0 
		c 35.29,0, 64,28.708, 64,64l0,256 C 513.204,418.806, 484.492,447.518, 449.204,447.518z M 389.89,42.832
		c 6.222-6.222, 4.114-11.314-4.688-11.314l-256,0 c-8.8,0-10.91,5.090-4.688,11.314l 20.688,20.686l 224,0 L 389.89,42.832z M 481.204,127.518
		c0-17.6-14.4-32-32-32l-384,0 c-17.602,0-32,14.4-32,32l0,256 c0,17.6, 14.398,32, 32,32l 384,0 c 17.6,0, 32-14.4, 32-32L 481.204,127.518 z M 433.204,367.518l0-224 
		l-352,0 l0,224 L 433.204,367.518  M 433.204,383.518l-352,0 c-8.836,0-16-7.164-16-16l0-224 c0-8.836, 7.164-16, 16-16l 352,0 c 8.836,0, 16,7.164, 16,16l0,224 
		C 449.204,376.354, 442.040,383.518, 433.204,383.518L 433.204,383.518z" horiz-adv-x="513"  />
<glyph unicode="&#xe019;" d="M 369.204,335.518l0-144 l-224,0 l0,144 L 369.204,335.518  M 369.204,351.518l-224,0 c-8.836,0-16-7.164-16-16l0-144 c0-8.836, 7.164-16, 16-16l 224,0 
		c 8.836,0, 16,7.164, 16,16l0,144 C 385.204,344.354, 378.040,351.518, 369.204,351.518L 369.204,351.518z M 500.406,105.114l-51.202,38.404l0,208 
		c0,35.29-28.71,64-64,64l-256,0 c-35.29,0-64-28.71-64-64l0-208 l-51.2-38.4c-8.058-6.042-12.8-15.528-12.8-25.6l0-16 
		c0-17.672, 14.328-32, 32-32l 448,0 c 17.672,0, 32,14.328, 32,32l0,15.996 C 513.204,89.586, 508.462,99.070, 500.406,105.114z M 129.204,383.518l 256,0 
		c 17.6,0, 32-14.4, 32-32l0-208 l-320,0 l0,208 C 97.204,369.118, 111.602,383.518, 129.204,383.518z M 481.204,63.518l-448,0 l0,16 l 64,48l 320,0 l 64-48.004
		L 481.204,63.518 z" horiz-adv-x="513"  />
<glyph unicode="&#xe01e;" d="M 385.204,383.518l0-304 l-256,0 l0,304 L 385.204,383.518  M 385.204,399.518l-256,0 c-8.836,0-16-7.164-16-16l0-304 c0-8.836, 7.164-16, 16-16l 256,0 
		c 8.836,0, 16,7.164, 16,16l0,304 C 401.204,392.354, 394.040,399.518, 385.204,399.518L 385.204,399.518z M 417.204,447.518c 17.6,0, 32-14.4, 32-32l0-384 
		c0-17.6-14.4-32-32-32l-320,0 c-17.602,0-32,14.4-32,32l0,384 c0,17.6, 14.398,32, 32,32L 417.204,447.518  M 417.204,479.518l-320,0 c-35.29,0-64-28.71-64-64
		l0-384 c0-35.29, 28.71-64, 64-64l 320,0 c 35.29,0, 64,28.71, 64,64l0,384 C 481.204,450.806, 452.494,479.518, 417.204,479.518L 417.204,479.518z
		 M 257.204,15.518c 8.836,0, 16,7.164, 16,16c0,8.836-7.164,16-16,16s-16-7.164-16-16C 241.204,22.68, 248.368,15.518, 257.204,15.518z" horiz-adv-x="513"  />
<glyph unicode="&#xe028;" d="M 369.204,399.518l0-288 l-224,0 l0,288 L 369.204,399.518  M 369.204,415.518l-224,0 c-8.836,0-16-7.164-16-16l0-288 c0-8.836, 7.164-16, 16-16l 224,0 
		c 8.836,0, 16,7.164, 16,16l0,288 C 385.204,408.354, 378.042,415.518, 369.204,415.518L 369.204,415.518z M 385.204,447.518c 17.6,0, 32-14.4, 32-32l0-384 
		c0-17.6-14.4-32-32-32l-256,0 c-17.602,0-32,14.4-32,32l0,384 c0,17.6, 14.398,32, 32,32L 385.204,447.518  M 385.204,479.518l-256,0 c-35.29,0-64-28.71-64-64
		l0-384 c0-35.29, 28.71-64, 64-64l 256,0 c 35.288,0, 64,28.71, 64,64l0,384 C 449.204,450.806, 420.492,479.518, 385.204,479.518L 385.204,479.518z
		 M 257.204,63.518c 8.836,0, 16-7.164, 16-16c0-8.836-7.164-16-16-16c-8.836,0-16,7.164-16,16C 241.204,56.354, 248.368,63.518, 257.204,63.518
		 M 257.204,79.518c-17.646,0-32-14.356-32-32s 14.354-32, 32-32c 17.644,0, 32,14.356, 32,32S 274.848,79.518, 257.204,79.518
		L 257.204,79.518z" horiz-adv-x="513"  />
<glyph unicode="&#xe023;" d="M 353.204,479.518l-192,0 c-35.29,0-64-28.71-64-64l0-384 c0-35.29, 28.71-64, 64-64l 192,0 c 35.29,0, 64,28.71, 64,64l0,384 
		C 417.204,450.806, 388.494,479.518, 353.204,479.518z M 129.204,415.518c0,17.6, 14.398,32, 32,32l 192,0 c 17.6,0, 32-14.4, 32-32l0-48 l-256,0 L 129.204,415.518 z
		 M 129.204,351.518l 256,0 l0-240 l-256,0 L 129.204,351.518 z M 385.204,31.518c0-17.6-14.4-32-32-32l-192,0 c-17.602,0-32,14.4-32,32l0,64 l 256,0 L 385.204,31.518 z
		 M 257.204,15.518c 17.644,0, 32,14.356, 32,32s-14.356,32-32,32s-32-14.356-32-32S 239.56,15.518, 257.204,15.518z M 257.204,63.518
		c 8.836,0, 16-7.164, 16-16c0-8.836-7.164-16-16-16s-16,7.164-16,16C 241.204,56.354, 248.368,63.518, 257.204,63.518z M 297.208,407.518
		c0-4.418-3.582-8-8-8l-64,0 c-4.418,0-8,3.582-8,8s 3.582,8, 8,8l 64,0 C 293.626,415.518, 297.208,411.936, 297.208,407.518z" horiz-adv-x="513"  />
</font>
</defs>
</svg>
