<?xml version="1.0" encoding="utf-8"?>
<!-- Generator: Adobe Illustrator 18.1.1, SVG Export Plug-In . SVG Version: 6.00 Build 0)  -->
<svg version="1.1" id="Layer_1" xmlns="http://www.w3.org/2000/svg" xmlns:xlink="http://www.w3.org/1999/xlink" x="0px" y="0px"
	 viewBox="0 0 200 200" enable-background="new 0 0 200 200" xml:space="preserve">
<g>
	<circle fill="#D0D2D3" cx="100" cy="100" r="100"/>
	<path fill="#929497" d="M15.045,152.741c17.648,28.365,49.089,47.26,84.955,47.26s67.306-18.895,84.953-47.26H15.045z"/>
	<circle fill="#FFFFFF" cx="146.764" cy="34.907" r="11.792"/>
	<path fill="#BBBDBF" d="M131.755,54.132h0.005l34.272,0.066c1.684,4.322,5.887,7.394,10.798,7.394c4.893,0,9.087-3.052,10.78-7.351
		l0.79,0.002l8.069,0.015l0.295-0.296c2.001-2.084,3.236-4.909,3.236-8.021c0-5.711-4.155-10.467-9.6-11.412
		c-0.013-0.002-0.022-0.003-0.034-0.005c-0.964-5.427-5.707-9.562-11.405-9.562c-5.367,0-9.892,3.67-11.201,8.633
		c-1.987-1.601-4.51-2.562-7.255-2.562c-5.769,0-10.565,4.239-11.442,9.767c-1.814-1.18-3.977-1.869-6.299-1.869
		c-6.389,0-11.586,5.197-11.586,11.586c0,1.257,0.204,2.469,0.577,3.604V54.132L131.755,54.132z M149.505,46.248
		c0.006,0.013,0.011,0.027,0.016,0.041C149.516,46.275,149.511,46.261,149.505,46.248z"/>
	<rect x="66.771" y="45.587" fill="#FFFFFF" width="10.552" height="22.838"/>
	<g>
		<g>
			<path fill="#D0D2D3" d="M108.729,181.84c-3.738,0-5.131-2.679-5.131-4.365c0-2.21,1.366-4.457,3.979-4.472
				c0.437-0.003,0.793,0.35,0.796,0.786c0,0,0,0.002,0,0.005c0,0.434-0.351,0.786-0.785,0.789c-1.901,0.013-2.408,1.823-2.408,2.892
				c0,0.773,0.638,2.785,3.548,2.785c2.622,0,3.55-2.623,3.55-4.868v-40.894c0-0.436,0.355-0.791,0.792-0.791s0.79,0.355,0.79,0.791
				v40.894C113.858,179.25,111.796,181.84,108.729,181.84z"/>
		</g>
	</g>
	<g>
		<g>
			<path fill="#D0D2D3" d="M104.388,170.494c-3.737,0-5.13-2.679-5.13-4.365c0-2.21,1.367-4.454,3.979-4.473
				c0.437-0.002,0.793,0.351,0.797,0.787c0,0.002,0,0.002,0,0.005c0,0.434-0.352,0.789-0.787,0.791
				c-1.9,0.01-2.408,1.821-2.408,2.89c0,0.775,0.639,2.784,3.55,2.784c2.621,0,3.551-2.62,3.551-4.867v-29.548
				c0-0.436,0.354-0.791,0.79-0.791c0.436,0,0.791,0.355,0.791,0.791v29.548C109.52,167.904,107.456,170.496,104.388,170.494z"/>
		</g>
	</g>
	<g>
		<g>
			<path fill="#D0D2D3" d="M121.846,181.84c-3.069,0-5.13-2.59-5.13-6.448v-40.894c0-0.436,0.354-0.791,0.79-0.791
				s0.79,0.355,0.79,0.791v40.894c0,2.245,0.93,4.868,3.55,4.868c2.912,0,3.549-2.012,3.549-2.785c0-1.068-0.506-2.879-2.407-2.892
				c-0.436-0.003-0.785-0.355-0.785-0.789c0-0.003,0-0.005,0-0.005c0.003-0.436,0.359-0.789,0.795-0.786
				c2.611,0.015,3.979,2.262,3.979,4.472C126.976,179.161,125.583,181.84,121.846,181.84z"/>
		</g>
	</g>
	<g>
		<g>
			<path fill="#D0D2D3" d="M126.58,170.496c-3.069,0-5.13-2.592-5.13-6.45v-29.548c0-0.436,0.353-0.791,0.79-0.791
				c0.436,0,0.79,0.355,0.79,0.791v29.548c0,2.247,0.93,4.867,3.55,4.867c2.912,0,3.549-2.009,3.549-2.784
				c0-1.068-0.506-2.88-2.407-2.89c-0.433-0.002-0.785-0.355-0.785-0.791c0,0,0-0.003,0-0.005c0.004-0.436,0.359-0.789,0.795-0.784
				c2.613,0.016,3.979,2.26,3.979,4.47C131.71,167.817,130.317,170.496,126.58,170.496z"/>
		</g>
	</g>
	<polygon fill="#FFFFFF" points="100,42.989 56.115,70.231 56.129,70.231 56.115,70.233 56.115,152.741 143.87,152.741 
		143.87,70.231 	"/>
	<rect x="104.054" y="110.242" fill="#98C93C" width="22.869" height="42.499"/>
	<path fill="#808184" d="M123.731,126.008h-1.051c-0.101,0-0.182,0.082-0.182,0.183v10.603c0,0.102,0.081,0.183,0.182,0.183h1.051
		c0.101,0,0.182-0.081,0.182-0.183V126.19C123.913,126.09,123.832,126.008,123.731,126.008z"/>
	<path fill="#A6A8AB" d="M31.549,128.434c0,3.738,2.68,5.131,4.367,5.131c2.209,0,4.455-1.367,4.472-3.98
		c0.003-0.436-0.349-0.792-0.785-0.794c-0.003,0-0.003,0-0.003,0c-0.438,0-0.791,0.35-0.793,0.783
		c-0.012,1.902-1.822,2.41-2.891,2.41c-0.775,0-2.785-0.64-2.785-3.549c0-2.623,2.621-3.552,4.867-3.552h40.895
		c0.436,0,0.79-0.355,0.79-0.792c0-0.437-0.354-0.789-0.79-0.789H37.998C34.142,123.303,31.549,125.366,31.549,128.434z"/>
	<path fill="#A6A8AB" d="M42.895,132.773c0,3.738,2.68,5.131,4.367,5.131c2.209,0,4.455-1.367,4.471-3.98
		c0.002-0.436-0.349-0.791-0.785-0.797c-0.001,0-0.004,0-0.006,0c-0.434,0-0.788,0.353-0.791,0.787
		c-0.011,1.902-1.822,2.406-2.89,2.406c-0.774,0-2.785-0.636-2.785-3.548c0-2.62,2.621-3.549,4.867-3.549h29.55
		c0.436,0,0.79-0.355,0.79-0.791c0-0.437-0.354-0.792-0.79-0.792h-29.55C45.486,127.642,42.895,129.704,42.895,132.773z"/>
	<path fill="#A6A8AB" d="M31.549,115.315c0,3.066,2.593,5.129,6.449,5.129h40.895c0.436,0,0.79-0.353,0.79-0.789
		c0-0.436-0.354-0.791-0.79-0.791H37.998c-2.246,0-4.867-0.929-4.867-3.549c0-2.912,2.01-3.549,2.785-3.549
		c1.068,0,2.879,0.505,2.891,2.407c0.002,0.434,0.355,0.784,0.79,0.784c0.001,0,0.003,0,0.003,0
		c0.438-0.003,0.789-0.357,0.787-0.794c-0.016-2.612-2.262-3.979-4.471-3.979C34.229,110.185,31.549,111.577,31.549,115.315z"/>
	<path fill="#A6A8AB" d="M42.895,110.58c0,3.069,2.592,5.131,6.448,5.131h29.55c0.436,0,0.79-0.354,0.79-0.791
		c0-0.437-0.354-0.792-0.79-0.792h-29.55c-2.246,0-4.867-0.928-4.867-3.548c0-2.912,2.011-3.549,2.785-3.549
		c1.067,0,2.879,0.507,2.89,2.407c0.003,0.434,0.357,0.786,0.791,0.786c0.002,0,0.004,0,0.004,0c0.438-0.005,0.789-0.36,0.787-0.796
		c-0.017-2.613-2.263-3.978-4.472-3.978C45.572,105.451,42.895,106.844,42.895,110.58z"/>
	<path fill="#A6A8AB" d="M168.448,83.941c0-3.739-2.679-5.129-4.367-5.129c-2.209,0-4.455,1.364-4.472,3.978
		c-0.002,0.436,0.349,0.794,0.785,0.796c0.003,0,0.004,0,0.007,0c0.434,0,0.787-0.353,0.79-0.786
		c0.011-1.899,1.822-2.407,2.89-2.407c0.775,0,2.785,0.637,2.785,3.549c0,2.62-2.621,3.549-4.867,3.549h-40.894
		c-0.437,0-0.79,0.354-0.79,0.791s0.354,0.791,0.79,0.791h40.894C165.857,89.072,168.448,87.011,168.448,83.941z"/>
	<path fill="#A6A8AB" d="M157.102,79.602c0-3.736-2.679-5.129-4.365-5.129c-2.21,0-4.456,1.367-4.473,3.977
		c-0.002,0.437,0.35,0.794,0.785,0.797c0.002,0,0.004,0,0.004,0c0.437,0,0.789-0.35,0.793-0.786c0.012-1.9,1.822-2.407,2.891-2.407
		c0.773,0,2.785,0.637,2.785,3.549c0,2.62-2.622,3.551-4.868,3.551h-29.549c-0.437,0-0.79,0.353-0.79,0.789
		c0,0.437,0.354,0.791,0.79,0.791h29.549C154.513,84.732,157.104,82.671,157.102,79.602z"/>
	<path fill="#A6A8AB" d="M168.448,97.061c0-3.069-2.591-5.132-6.449-5.132h-40.894c-0.437,0-0.79,0.353-0.79,0.791
		c0,0.437,0.354,0.789,0.79,0.789H162c2.245,0,4.868,0.932,4.868,3.552c0,2.909-2.012,3.548-2.787,3.548
		c-1.067,0-2.877-0.507-2.89-2.407c-0.003-0.436-0.356-0.786-0.79-0.786c0,0-0.004,0-0.006,0c-0.436,0.003-0.787,0.36-0.784,0.797
		c0.015,2.61,2.261,3.978,4.47,3.978C165.77,102.189,168.448,100.797,168.448,97.061z"/>
	<path fill="#A6A8AB" d="M157.102,101.793c0-3.066-2.59-5.129-6.448-5.129h-29.549c-0.437,0-0.79,0.353-0.79,0.789
		c0,0.437,0.354,0.792,0.79,0.792h29.549c2.246,0,4.868,0.928,4.868,3.548c0,2.912-2.011,3.549-2.785,3.549
		c-1.068,0-2.879-0.505-2.891-2.407c-0.003-0.434-0.355-0.783-0.79-0.783c0,0-0.003,0-0.005,0c-0.436,0.002-0.789,0.357-0.787,0.794
		c0.017,2.612,2.263,3.979,4.473,3.979C154.425,106.925,157.104,105.532,157.102,101.793z"/>
	<g>
		<path fill="#FFFFFF" d="M72.327,133.858v-24.366h24.367v24.366H72.327z M103.304,102.883V78.514h24.369v24.369H103.304z
			 M72.327,102.883V78.514h24.367v24.369H72.327z"/>
		<path fill="#C5C7C9" d="M126.923,79.264v22.869h-22.869V79.264H126.923 M95.944,79.264v22.869H73.077V79.264H95.944
			 M95.944,110.242v22.866H73.077v-22.866H95.944 M128.423,77.764h-1.5h-22.869h-1.5v1.5v22.869v1.5h1.5h22.869h1.5v-1.5V79.264
			V77.764L128.423,77.764z M97.444,77.764h-1.5H73.077h-1.5v1.5v22.869v1.5h1.5h22.867h1.5v-1.5V79.264V77.764L97.444,77.764z
			 M97.444,108.742h-1.5H73.077h-1.5v1.5v22.866v1.5h1.5h22.867h1.5v-1.5v-22.866V108.742L97.444,108.742z"/>
	</g>
</g>
</svg>
