<?xml version="1.0" encoding="utf-8"?>
<!-- Generator: Adobe Illustrator 16.0.0, SVG Export Plug-In . SVG Version: 6.00 Build 0)  -->
<!DOCTYPE svg PUBLIC "-//W3C//DTD SVG 1.1//EN" "http://www.w3.org/Graphics/SVG/1.1/DTD/svg11.dtd">
<svg version="1.1" id="icons" xmlns="http://www.w3.org/2000/svg" xmlns:xlink="http://www.w3.org/1999/xlink" x="0px" y="0px"
     viewBox="0 0 80 80" enable-background="new 0 0 80 80" xml:space="preserve" display="none">
<g id="stroke">
    <g id="lock">
        <path id="lock-bottom" fill="none" stroke-width="10" stroke-miterlimit="10" d="M69.904,64.314
            c0,3.906-3.166,7.072-7.071,7.072H16.976c-3.905,0-7.071-3.166-7.071-7.072v-19.85c0-3.905,3.166-7.071,7.071-7.071h45.857
            c3.905,0,7.071,3.166,7.071,7.071V64.314z"/>
        <path id="lock-top" fill="none" stroke-width="10" stroke-miterlimit="10" d="M54.46,35.945V23.972
            c0-8.039-6.517-14.555-14.556-14.555c-8.039,0-14.555,6.517-14.555,14.555v11.973"/>
    </g>
    <g id="mail">
        <path fill="none" d="M74.969,57c0,4.418-3.582,8-8,8h-54c-4.418,0-8-3.582-8-8V23c0-4.418,3.582-8,8-8h54c4.418,0,8,3.582,8,8V57z
            "/>
        <polyline fill="none" points="9.968,20 39.968,40 69.969,20      "/>
    </g>
    <g id="close">
        <line fill="none" stroke-width="10" stroke-miterlimit="10" stroke-linecap="round" stroke-linejoin="round" x1="14.968" y1="15" x2="64.969" y2="65"/>
        <line fill="none" stroke-width="10" stroke-miterlimit="10" stroke-linecap="round" stroke-linejoin="round" x1="64.969" y1="15" x2="14.968" y2="65"/>
    </g>
    <polyline id="check" fill="none" stroke-width="10" stroke-miterlimit="10" stroke-linecap="round" stroke-linejoin="round" points="9.968,39.131 30.838,60 69.969,20.869   "/>
    <g id="circle-warn">
        <circle id="circle-warn-circle" cx="39.905" cy="39.916" r="35"/>
        <g id="circle-warn-exc">
            <line fill="none" x1="39.905" y1="42.167" x2="39.905" y2="21.165"/>
            <line fill="none" x1="40" y1="55.52" x2="40" y2="56.145"/>
        </g>
    </g>
    <g id="circle-check">
        <circle id="circle-check-circle" cx="39.968" cy="40" r="35"/>
        <polyline id="circle-check-check" fill="none" points="24.968,40 34.968,50 54.969,30         "/>
    </g>
    <polyline id="right-arrow" stroke-width="10" stroke-miterlimit="10" stroke-linecap="round" stroke-linejoin="round" fill="none" points="24.968,10 54.969,40 24.968,70    "/>
    <polyline id="left-arrow" stroke-width="10" stroke-miterlimit="10" stroke-linecap="round" stroke-linejoin="round" fill="none" points="49.969,10 19.968,40 49.969,70     "/>
    <g id="list">
        <line fill="none" x1="27.218" y1="20" x2="69.969" y2="20"/>
        <line fill="none" x1="27.218" y1="40" x2="69.969" y2="40"/>
        <line fill="none" x1="27.218" y1="60" x2="69.969" y2="60"/>
        <line fill="none" x1="9.968" y1="20" x2="11.518" y2="20"/>
        <line fill="none" x1="9.968" y1="40" x2="11.518" y2="40"/>
        <line fill="none" x1="9.968" y1="60" x2="11.518" y2="60"/>
    </g>
    <g id="coin">
        <circle id="coin-outline" stroke-width="10" stroke-miterlimit="10" cx="39.968" cy="40" r="35"/>
        <g id="coin-symbol">
            <path fill="none" stroke-width="4" stroke-miterlimit="10" d="M50.969,29.486
                c-2.107-3.037-6.255-4.67-10.292-4.67c-9.468,0-16.777,11.847,0.205,15.2c13.963,2.757,11.283,16.116-0.04,16.09
                c-4.862-0.012-9.8-2.833-11.607-7.922"/>
            <line fill="none" stroke-width="4" stroke-miterlimit="10" x1="40.876" y1="16.94" x2="40.876" y2="64.106"/>
        </g>
    </g>
    <g id="flame">
        <path fill="none" stroke-width="10" stroke-linecap="round" stroke-linejoin="round" stroke-miterlimit="10" d="
            M40,70.25c48.25-25.375-1.667-61.749-1.667-61.749C37.333,30.668-4.25,40,40,70.25"/>
        <path fill="none" stroke-width="4" stroke-linecap="round" stroke-linejoin="round" stroke-miterlimit="10" d="
            M41.38,36.375c-3.755,11.25-17.88,13.125-1.38,31C58.449,53.903,45.379,40.907,41.38,36.375z"/>
    </g>
</g>
<g id="fill" display="none">
    <path id="caret" d="M6.946,28.676C3.129,23.904,5.005,20,11.115,20h57.77c6.111,0,7.986,3.902,4.17,8.676L46.939,61.32
        c-3.818,4.771-10.064,4.771-13.881,0L6.946,28.676z"/>
    <g id="sun">
        <path id="sun-center" display="inline" d="M40.017,22.497c-9.64,0-17.489,7.854-17.489,17.495c0,9.652,7.849,17.499,17.489,17.499
            c9.653,0,17.5-7.847,17.5-17.499C57.518,30.352,49.67,22.497,40.017,22.497L40.017,22.497z"/>
        <g id="sun-rays" display="inline">
            <path d="M40.017,18.121c1.211,0,2.19-0.973,2.19-2.186V7.188c0-1.209-0.979-2.188-2.19-2.188c-1.202,0-2.184,0.979-2.184,2.188
                v8.748C37.833,17.148,38.815,18.121,40.017,18.121L40.017,18.121z"/>
            <path d="M40.017,74.989c1.211,0,2.19-0.976,2.19-2.188V64.05c0-1.202-0.979-2.187-2.19-2.187c-1.202,0-2.184,0.979-2.184,2.187
                v8.751C37.833,74.016,38.815,74.989,40.017,74.989L40.017,74.989z"/>
            <path d="M23.005,25.172c0.563,0,1.127-0.21,1.552-0.637c0.856-0.855,0.856-2.244,0-3.094l-6.183-6.19
                c-0.86-0.849-2.241-0.849-3.102,0c-0.852,0.858-0.852,2.242,0,3.097l6.194,6.188C21.891,24.962,22.451,25.172,23.005,25.172
                L23.005,25.172z"/>
            <path d="M63.225,65.381c0.561,0,1.117-0.212,1.543-0.638c0.854-0.854,0.854-2.237,0-3.097l-6.188-6.184
                c-0.852-0.857-2.242-0.857-3.088,0c-0.863,0.857-0.863,2.234,0,3.092l6.186,6.188C62.105,65.169,62.666,65.381,63.225,65.381
                L63.225,65.381z"/>
            <path d="M15.965,42.18c1.204,0,2.192-0.972,2.192-2.188c0-1.199-0.988-2.186-2.192-2.186H7.218c-1.209,0-2.184,0.986-2.184,2.186
                c0,1.216,0.975,2.188,2.184,2.188H15.965L15.965,42.18z"/>
            <path d="M72.826,42.18c1.207,0,2.193-0.972,2.193-2.188c0-1.199-0.986-2.186-2.193-2.186h-8.748
                c-1.203,0-2.188,0.985-2.188,2.186c0,1.216,0.982,2.188,2.188,2.188H72.826L72.826,42.18z"/>
            <path d="M16.824,65.381c0.56,0,1.118-0.212,1.55-0.638l6.183-6.188c0.856-0.854,0.856-2.229,0-3.09
                c-0.854-0.859-2.24-0.859-3.09,0l-6.194,6.182c-0.852,0.858-0.852,2.24,0,3.099C15.707,65.169,16.263,65.381,16.824,65.381
                L16.824,65.381z"/>
            <path d="M57.037,25.172c0.557,0,1.117-0.21,1.543-0.637l6.188-6.196c0.854-0.846,0.854-2.229,0-3.088
                c-0.854-0.849-2.234-0.849-3.09,0l-6.189,6.19c-0.855,0.85-0.855,2.238,0,3.094C55.916,24.962,56.475,25.172,57.037,25.172
                L57.037,25.172z"/>
        </g>
    </g>
    <g id="sunset">
        <g id="setting-sun-rays" display="inline">
            <path d="M40.017,25.637c1.211,0,2.19-0.973,2.19-2.186v-8.748c0-1.209-0.979-2.188-2.19-2.188c-1.202,0-2.184,0.979-2.184,2.188
                v8.748C37.833,24.664,38.815,25.637,40.017,25.637L40.017,25.637z"/>
            <path d="M23.005,32.688c0.563,0,1.127-0.21,1.552-0.637c0.856-0.855,0.856-2.244,0-3.094l-6.183-6.19
                c-0.86-0.849-2.241-0.849-3.102,0c-0.852,0.858-0.852,2.242,0,3.097l6.194,6.188C21.891,32.478,22.451,32.688,23.005,32.688
                L23.005,32.688z"/>
            <path d="M15.965,49.695c1.204,0,2.192-0.973,2.192-2.188c0-1.198-0.988-2.187-2.192-2.187H7.218
                c-1.209,0-2.184,0.986-2.184,2.187c0,1.216,0.975,2.188,2.184,2.188H15.965L15.965,49.695z"/>
            <path d="M61.891,63.932c1.203,0,2.191-0.973,2.191-2.188c0-1.199-0.988-2.188-2.191-2.188H18.157
                c-1.209,0-2.184,0.986-2.184,2.188c0,1.216,0.975,2.188,2.184,2.188H61.891L61.891,63.932z"/>
            <path d="M72.826,49.695c1.207,0,2.193-0.973,2.193-2.188c0-1.198-0.986-2.187-2.193-2.187h-8.748
                c-1.203,0-2.188,0.986-2.188,2.187c0,1.216,0.982,2.188,2.188,2.188H72.826L72.826,49.695z"/>
            <path d="M57.037,32.688c0.557,0,1.117-0.21,1.543-0.637l6.188-6.196c0.854-0.846,0.854-2.229,0-3.088
                c-0.854-0.849-2.234-0.849-3.09,0l-6.189,6.19c-0.855,0.85-0.855,2.238,0,3.094C55.916,32.478,56.475,32.688,57.037,32.688
                L57.037,32.688z"/>
        </g>
        <path display="inline" d="M55.501,55.641c1.282-2.432,2.017-5.195,2.017-8.133c0-9.641-7.848-17.495-17.5-17.495
            c-9.64,0-17.489,7.854-17.489,17.495c0,2.938,0.734,5.701,2.017,8.133H55.501z"/>
    </g>
    <path id="info" d="M40.023,0.002C17.933,0.002,0.025,17.911,0.025,40s17.907,39.998,39.998,39.998
        c22.088,0,39.999-17.909,39.999-39.998S62.111,0.002,40.023,0.002z M45.021,59.999c0,2.761-2.238,5-5,5c-2.762,0-5-2.239-5-5v-15
        c-2.762,0-5-2.239-5-4.999s2.238-5,5-5h5c2.76,0,5,2.24,5,5V59.999z M40.023,30c-4.144,0-7.5-3.356-7.5-7.5
        c0-4.143,3.356-7.5,7.5-7.5c4.141,0,7.5,3.356,7.5,7.5S44.164,30,40.023,30z"/>
    <g id="coffee">
        <g display="inline">
            <path d="M8.363,76.145h63.163c2.479,0,4.509-2.022,4.509-4.508H3.851C3.851,74.12,5.875,76.145,8.363,76.145z"/>
            <path d="M26.408,67.124h27.068c0.81,0,1.562-0.429,1.953-1.136c1.284-2.254,3.363-6.211,5.225-11.275
                c7.354-0.208,15.38-5.697,15.38-13.518c0-4.361-3.542-7.908-7.896-7.908c-1.125,0-2.299,0.25-3.394,0.679
                c0-0.215,0.009-0.451,0.009-0.679c0-1.242-1.015-2.254-2.256-2.254H17.384c-1.238,0-2.254,1.012-2.254,2.254
                c0,14.798,6.52,27.802,9.316,32.701C24.844,66.695,25.596,67.124,26.408,67.124z M64.384,39.532
                c0.859-0.965,2.356-1.732,3.753-1.732c1.87,0,3.391,1.519,3.391,3.396c0,4.845-4.928,8.063-9.316,8.83
                C63.164,46.79,63.941,43.257,64.384,39.532z"/>
            <path d="M35.992,26.52c1.251,0,2.258-1.001,2.258-2.253c0-1.244-1.007-2.256-2.258-2.256c-2.484,0-4.507-2.021-4.507-4.51
                c0-1.244-1.02-2.258-2.26-2.258c-1.239,0-2.256,1.014-2.256,2.258C26.969,22.477,31.019,26.52,35.992,26.52z"/>
            <path d="M41.624,17.5c3.735,0,6.778,3.042,6.778,6.766c0,1.252,1.015,2.253,2.244,2.253c1.25,0,2.266-1.001,2.266-2.253
                c0-6.214-5.055-11.28-11.288-11.28c-3.726,0-6.757-3.03-6.757-6.768c0-1.242-1.014-2.254-2.26-2.254
                c-1.238,0-2.252,1.012-2.252,2.254C30.355,12.446,35.41,17.5,41.624,17.5z"/>
        </g>
    </g>
    <g id="moon">
        <path display="inline" d="M40.045,42.471"/>
        <path display="inline" d="M68.014,25.544c-5.271-5.685-12.359-9.055-19.979-9.494c-0.756-0.047-1.461,0.36-1.789,1.04
            c-0.143,0.265-0.197,0.551-0.197,0.831c0,0.445,0.156,0.882,0.456,1.233c4.504,5.199,5.172,12.035,5.172,15.655
            c0,13.337-11.53,25.034-24.676,25.034c-1.658,0-3.305-0.194-4.908-0.586c-0.146-0.032-0.299-0.056-0.445-0.056
            c-0.601,0-1.184,0.298-1.542,0.812c-0.215,0.317-0.331,0.69-0.331,1.065c0,0.368,0.112,0.739,0.331,1.062
            c5.906,8.605,15.814,13.946,25.86,13.946c16.604,0,30.107-13.504,30.107-30.11C76.072,38.428,73.208,31.163,68.014,25.544z"/>
        <path display="inline" d="M22.028,11.352c0,0.29-0.112,0.587-0.329,0.797l-3.515,3.519l1.008,5.036
            c0.077,0.43-0.089,0.875-0.444,1.126c-0.198,0.14-0.425,0.218-0.665,0.218c-0.189,0-0.37-0.045-0.545-0.148l-4.52-2.504
            L8.504,21.9c-0.176,0.103-0.362,0.148-0.549,0.148c-0.235,0-0.469-0.079-0.665-0.218c-0.355-0.252-0.526-0.697-0.441-1.126
            l1.003-5.036l-3.509-3.519c-0.221-0.21-0.327-0.508-0.327-0.797c0-0.115,0.015-0.235,0.054-0.345
            c0.124-0.402,0.471-0.702,0.891-0.766l4.756-0.749l2.286-4.82c0.185-0.383,0.581-0.639,1.016-0.639
            c0.436,0,0.833,0.256,1.02,0.639l2.279,4.82l4.761,0.749c0.417,0.064,0.762,0.364,0.889,0.766
            C22.003,11.117,22.028,11.236,22.028,11.352z"/>
        <path display="inline" d="M25.778,36.686c0,0.199-0.078,0.392-0.22,0.53l-2.342,2.346l0.676,3.358
            c0.056,0.288-0.064,0.581-0.295,0.755c-0.134,0.095-0.288,0.144-0.444,0.144c-0.127,0-0.25-0.031-0.358-0.09l-3.021-1.681
            l-3.012,1.681c-0.112,0.059-0.235,0.09-0.366,0.09c-0.149,0-0.31-0.049-0.44-0.144c-0.239-0.174-0.351-0.467-0.294-0.755
            l0.679-3.358l-2.346-2.346c-0.146-0.139-0.221-0.331-0.221-0.53c0-0.079,0.008-0.152,0.036-0.233
            c0.084-0.265,0.315-0.464,0.6-0.51l3.167-0.499l1.52-3.208c0.127-0.258,0.393-0.43,0.678-0.43c0.293,0,0.555,0.172,0.678,0.43
            l1.516,3.208l3.179,0.499c0.284,0.046,0.508,0.245,0.602,0.51C25.771,36.534,25.778,36.606,25.778,36.686z"/>
    </g>
    <g id="thermometer">
        <g display="inline">
            <path id="thermometer-outline" d="M39.906,77.484c-10.376,0-18.817-8.441-18.817-18.817c0-5.116,2.08-9.979,5.745-13.521V15.484
                c0-7.168,5.832-13,13-13s13,5.832,13,13v29.513c3.757,3.551,5.891,8.468,5.891,13.67C58.725,69.043,50.282,77.484,39.906,77.484z
                 M39.834,7.484c-4.412,0-8,3.589-8,8v31.922l-0.878,0.748c-3.093,2.636-4.866,6.468-4.866,10.513
                c0,7.619,6.198,13.817,13.817,13.817c7.618,0,13.817-6.198,13.817-13.817c0-4.114-1.818-7.987-4.988-10.625l-0.901-0.75V15.484
                C47.834,11.073,44.245,7.484,39.834,7.484z"/>
        </g>
        <circle id="thermometer-base" display="inline" cx="40" cy="58.75" r="9.5"/>
        <g id="thermometer-level" display="inline">
            <path d="M39.75,52.375c-1.381,0-2.5-1.119-2.5-2.5V17.5c0-1.381,1.119-2.5,2.5-2.5s2.5,1.119,2.5,2.5v32.375
                C42.25,51.256,41.131,52.375,39.75,52.375z"/>
        </g>
    </g>
    <g id="plus-sign" display="inline">
        <circle cx="40" cy="40" r="40"/>
        <path fill="#FFFFFF" d="M62.542,34.836H45.045V17.5c0-2.761-2.238-5-5-5c-2.761,0-5,2.239-5,5v17.336H17.708c-2.761,0-5,2.239-5,5
            c0,2.762,2.239,5,5,5h17.336v17.648c0,2.762,2.239,5,5,5s5-2.238,5-5V44.836h17.497c2.762,0,5-2.238,5-5
            S65.305,34.836,62.542,34.836z"/>
    </g>
</g>
</svg>
